<svg width="33" height="33" viewBox="0 0 33 33" fill="none" xmlns="http://www.w3.org/2000/svg">
    <path d="M16.31 1.32c-3.12 0-5.672 2.584-5.672 5.736v2.363H6.226a.928.928 0 0 0-.946.945v14.812a4.72 4.72 0 0 0 4.727 4.727h12.606a4.72 4.72 0 0 0 4.727-4.727V10.364a.928.928 0 0 0-.945-.945h-4.412V7.055c0-3.151-2.553-5.735-5.673-5.735zM12.53 7.055c0-2.111 1.701-3.845 3.781-3.845s3.782 1.733 3.782 3.845v2.364h-7.563V7.055zm12.92 4.286v13.867a2.824 2.824 0 0 1-2.836 2.836H10.007a2.824 2.824 0 0 1-2.836-2.837V11.341h3.467v1.639c0 .535.41.945.945.945.536 0 .945-.41.945-.945v-1.64h7.564v1.64c0 .535.41.945.945.945.536 0 .946-.41.946-.945v-1.64l3.467.001z" fill="#4C4294"/>
</svg>
