<svg width="206" height="26" viewBox="0 0 206 26" fill="none" xmlns="http://www.w3.org/2000/svg">
    <path d="M34.986 11.364V8.652c0-1.51-.447-2.094-1.202-2.094-1.03 0-1.614 1.27-1.751 4.84h2.953v-.034zM48.753 10.3c0-1.27-.79-1.648-1.613-1.648-.55 0-1.27.309-1.511.48v8.824c0 1.065.412 1.374 1.27 1.545v.31h-7.347v-.31c.515-.103 1.167-.446 1.167-1.613v-9.82c0-1.167-.309-1.51-1.167-1.648v-.309h6.18l-.172 2.713c.859-1.614 2.335-2.953 4.395-2.953 1.82 0 3.64.858 3.64 3.948v8.103c0 .893.137 1.442 1.03 1.614v.309h-6.936v-.31c.652-.171 1.03-.617 1.03-1.613V10.3h.034zm7.348-2.266c0-.893-.275-1.51-1.133-1.648v-.309h6.008v11.776c0 .859.309 1.511 1.202 1.614v.309h-7.279v-.309c.893-.103 1.202-.79 1.202-1.614V8.034zm5.012-5.459c0 1.442-1.201 2.575-2.643 2.575-1.442 0-2.61-1.133-2.61-2.575C55.86 1.167 57.028 0 58.47 0c1.442.034 2.643 1.167 2.643 2.575zM71.482 10.3c0-1.27-.79-1.648-1.614-1.648-.549 0-1.27.309-1.51.48v8.824c0 1.065.377 1.374 1.27 1.545v.31h-7.176v-.31c.481-.103 1.03-.446 1.03-1.613v-9.82c0-1.167-.309-1.51-1.167-1.648v-.309h6.18l-.172 2.713c.859-1.614 2.335-2.953 4.395-2.953 1.82 0 3.64.858 3.64 3.948v8.103c0 .893.137 1.442 1.03 1.614v.309h-6.936v-.31c.652-.171 1.03-.617 1.03-1.613V10.3zm13.596-.069c0-2.575-.309-3.742-1.167-3.742-.927 0-1.305 1.133-1.305 3.742v.412c0 2.575.378 3.743 1.305 3.743.892 0 1.167-1.133 1.167-3.743v-.412zm30.522 7.142c-.446 1.167-1.991 2.575-4.394 2.575-2.507 0-3.228-1.614-3.228-3.228V6.935h-1.201v-.309c1.785-.309 4.36-1.785 5.802-3.33h.309v2.815h2.678v.859h-2.678v9.373c0 .892.412 1.442 1.27 1.442.584 0 1.03-.31 1.236-.55l.206.138zm22.66-7.073c0-1.27-.789-1.648-1.613-1.648-.55 0-1.271.309-1.511.48v8.824c0 1.065.378 1.374 1.27 1.545v.31h-7.244v-.31c.515-.103 1.099-.446 1.099-1.613v-9.82c0-1.167-.309-1.51-1.168-1.648v-.309h6.18l-.171 2.713c.858-1.614 2.334-2.953 4.394-2.953 1.82 0 3.64.858 3.64 3.948v8.103c0 .893.137 1.442 1.03 1.614v.309h-6.936v-.31c.653-.171 1.03-.617 1.03-1.613V10.3zm14.832 6.077c0 1.167-1.03 1.682-1.682 1.682-1.373 0-2.06-.961-2.06-2.54V8.755c0-1.476.996-2.094 1.991-2.094.859 0 1.751.652 1.751 1.854v7.862zM2.197 3.296c0-1.133-.412-2.06-2.197-2.197V.652h15.107v4.944h-.515c-1.683-2.78-2.232-4.12-4.017-4.12h-2.85v8.412h1.167c1.923 0 2.507-.824 3.468-3.159h.412v7.039h-.412c-.961-2.335-1.545-3.159-3.468-3.159H7.725v6.901c0 .961.343 1.476 1.785 1.476h.79c2.781 0 3.57-1.854 5.356-4.875h.48l-.549 5.7H0v-.481c1.751-.138 2.197-1.065 2.197-2.198V3.296zm157.041 16.48v-.309c-1.133-.172-1.27-.755-1.27-1.614V.653h-6.352v.343c1.305.171 1.476.206 1.476.927v4.91c-.48-.55-1.579-1.03-2.987-1.03-2.952 0-5.974 2.3-5.974 7.381 0 4.704 2.06 6.901 5.013 6.901 2.232 0 3.502-1.373 3.948-2.335v1.992h6.146v.034zm33.818-3.399c0 1.167-1.03 1.682-1.682 1.682-1.373 0-2.06-.961-2.06-2.54V8.755c0-1.476.996-2.094 1.991-2.094.859 0 1.751.652 1.751 1.854v7.862zm6.146 3.399v-.309c-1.133-.172-1.27-.755-1.27-1.614V.653h-6.352v.343c1.305.171 1.476.206 1.476.927v4.91c-.48-.55-1.579-1.03-2.987-1.03-2.952 0-5.974 2.3-5.974 7.381 0 4.704 2.06 6.901 5.013 6.901 2.232 0 3.502-1.373 3.948-2.335v1.992h6.146v.034zm-32.788-2.026v-6.317c-.275 1.408-2.335 1.751-2.335 4.189v.103c0 1.201.824 2.094 1.854 2.094.172 0 .309-.034.481-.069zm12.291-7.725v7.382c0 1.305.378 1.854 1.511 2.094v.31h-7.485v-.31c.481-.103 1.099-.446 1.099-1.613v-9.82c0-.892-.309-1.51-1.168-1.648v-.309h6.18c-.137 1.27-.137 2.129-.137 3.914zm5.734-1.648c0 1.442-1.202 2.575-2.644 2.575-1.442 0-2.609-1.133-2.609-2.575 0-1.407 1.167-2.575 2.609-2.575s2.644 1.168 2.644 2.575zM80.649 14.49c-.206.206-.378.48-.378.858 0 .412.24.824 1.236.824l5.219.069c3.433.034 4.463 1.957 4.463 3.536 0 4.189-4.806 5.871-8.24 5.871-4.394 0-5.94-1.305-5.94-2.85 0-.927.928-1.888 2.85-1.888.275 0 .515.034.79.069l.034.068c-.446.378-.755.927-.755 1.511 0 1.133 1.064 2.266 3.914 2.266 2.815 0 4.566-1.133 4.566-2.438 0-1.064-.755-1.51-2.712-1.613l-3.948-.172c-2.884-.137-3.983-1.51-3.983-3.124 0-1.099.893-2.541 2.54-3.125-1.544-.755-2.609-2.025-2.609-3.914 0-2.815 2.713-4.6 6.146-4.6 1.064 0 2.094.171 2.987.515.378.068.721.068 1.064.068a9.424 9.424 0 0 0 3.777-.79v2.335h-.172c-.686-.068-2.575-.652-3.88-1.201 1.374.824 2.301 2.094 2.301 3.708 0 2.884-2.712 4.669-6.077 4.669-1.099-.069-2.232-.24-3.193-.652zm16-3.434c-1.511-1.098-2.782-2.609-2.782-4.635 0-3.502 3.09-6.008 7.588-6.008 1.957 0 3.777.446 5.013.893l-.138 4.497h-.549c-1.373-2.952-2.3-4.566-4.326-4.566-1.545 0-2.712 1.03-2.712 2.712 0 1.133.755 2.06 1.819 2.816l2.85 2.094c2.197 1.614 3.536 2.815 3.536 5.047 0 3.88-3.742 6.146-7.553 6.146-2.403 0-4.635-.687-5.734-1.305l-.206-5.116h.55c1.648 3.537 3.055 5.562 5.321 5.562 1.511 0 2.678-.927 2.678-2.712 0-1.373-1.03-2.335-2.403-3.296l-2.953-2.129zm-57.131 4.292c-.721 2.54-2.713 4.738-6.318 4.738-4.12 0-6.351-3.021-6.351-6.523 0-4.395 2.678-7.725 7.038-7.725 3.193 0 5.596 1.991 5.596 5.87v.55H32c0 3.536 1.716 4.91 3.605 4.91 1.27 0 2.609-.481 3.605-1.923l.309.103zm90.125 3.056a5.474 5.474 0 0 1-4.017 1.716c-1.683 0-2.575-.79-2.747-1.922-.687 1.064-1.82 1.888-3.502 1.888-2.129 0-3.639-1.442-3.639-3.468 0-2.437 1.648-3.296 4.291-4.017 2.129-.549 2.919-1.304 2.919-2.952v-.103c0-1.683-1.374-2.781-3.056-2.781-.412 0-.824.068-1.27.171 1.236.103 2.231 1.133 2.231 2.335 0 1.339-1.098 2.369-2.472 2.369-1.27 0-2.266-1.03-2.266-2.3 0-2.232 3.022-3.571 6.352-3.571 3.227 0 5.253 1.27 5.253 3.674 0 .034 0 3.158-.069 7.93 0 .55.275 1.03.859 1.03.24 0 .549-.068.892-.274l.241.275zm-6.798-.653v-6.317c-.275 1.408-2.335 1.751-2.335 4.189v.103c0 1.201.824 2.094 1.854 2.094.172 0 .309-.034.481-.069zm50.367.653a5.474 5.474 0 0 1-4.017 1.716c-1.683 0-2.575-.79-2.747-1.922-.687 1.064-1.82 1.888-3.502 1.888-2.129 0-3.639-1.442-3.639-3.468 0-2.437 1.648-3.296 4.291-4.017 2.129-.549 2.919-1.304 2.919-2.952v-.103c0-1.683-1.374-2.781-3.056-2.781-.412 0-.824.068-1.27.171 1.236.103 2.231 1.133 2.231 2.335 0 1.339-1.098 2.369-2.472 2.369-1.27 0-2.266-1.03-2.266-2.3 0-2.232 3.022-3.571 6.352-3.571 3.227 0 5.253 1.27 5.253 3.674 0 .034 0 3.158-.069 7.93 0 .55.275 1.03.859 1.03.24 0 .549-.068.892-.274l.241.275zM23.244 19.776h-3.949L15.587 8.343c-.412-1.202-.858-1.751-1.407-1.957v-.309h8.343v.309c-1.442.24-1.992.79-1.614 2.094l2.54 8.343 2.095-7.484c.172-.687.309-1.236.309-1.751 0-.893-.618-1.133-1.373-1.236v-.31h4.257v.31c-.755.274-1.27.652-2.026 2.85l-3.467 10.574zM203.082 19.79c1.611 0 2.918-1.321 2.918-2.952 0-1.63-1.307-2.953-2.918-2.953-1.612 0-2.919 1.322-2.919 2.953 0 1.63 1.307 2.953 2.919 2.953z" fill="#4C4294"/>
    <path d="M34.986 11.38V8.666c0-1.51-.447-2.094-1.202-2.094-1.03 0-1.614 1.27-1.751 4.84h2.953v-.034zm13.767-1.065c0-1.27-.79-1.648-1.613-1.648-.55 0-1.27.309-1.511.48v8.824c0 1.065.412 1.374 1.27 1.545v.31h-7.347v-.31c.515-.103 1.167-.446 1.167-1.613v-9.82c0-1.167-.309-1.51-1.167-1.648v-.309h6.18L45.56 8.84c.859-1.614 2.335-2.953 4.395-2.953 1.82 0 3.64.858 3.64 3.948v8.034c0 .893.137 1.442 1.03 1.614v.309h-6.936v-.31c.652-.17 1.03-.617 1.03-1.613v-7.553h.034zm7.348-2.266c0-.893-.275-1.51-1.133-1.648v-.31h6.008v11.777c0 .859.309 1.51 1.202 1.614v.309h-7.279v-.31c.893-.102 1.202-.789 1.202-1.613v-9.82zm5.012-5.46c0 1.443-1.201 2.576-2.643 2.576-1.442 0-2.61-1.133-2.61-2.575 0-1.408 1.168-2.575 2.61-2.575s2.643 1.167 2.643 2.575zm10.369 7.726c0-1.27-.79-1.648-1.614-1.648-.549 0-1.27.309-1.51.48v8.824c0 1.065.377 1.374 1.27 1.545v.31h-7.176v-.31c.481-.103 1.03-.446 1.03-1.613v-9.82c0-1.167-.309-1.51-1.167-1.648v-.309h6.18l-.172 2.713c.859-1.614 2.335-2.953 4.395-2.953 1.82 0 3.64.858 3.64 3.948v8.034c0 .893.137 1.442 1.03 1.614v.309h-6.936v-.31c.652-.17 1.03-.617 1.03-1.613v-7.553zm13.596-.103c0-2.575-.309-3.742-1.167-3.742-.927 0-1.305 1.133-1.305 3.742v.412c0 2.575.378 3.742 1.305 3.742.892 0 1.167-1.133 1.167-3.742v-.412zm30.522 7.176c-.446 1.167-1.991 2.575-4.394 2.575-2.507 0-3.228-1.614-3.228-3.228V6.95h-1.201v-.309c1.785-.309 4.36-1.785 5.802-3.33h.309v2.815h2.678v.859h-2.678v9.373c0 .892.412 1.442 1.27 1.442.584 0 1.03-.31 1.236-.55l.206.138zm22.66-7.073c0-1.27-.789-1.648-1.613-1.648-.55 0-1.271.309-1.511.48v8.824c0 1.065.378 1.374 1.27 1.545v.31h-7.244v-.31c.515-.103 1.099-.446 1.099-1.613v-9.82c0-1.167-.309-1.51-1.168-1.648v-.309h6.18l-.171 2.713c.858-1.614 2.334-2.953 4.394-2.953 1.82 0 3.64.858 3.64 3.948v8.034c0 .893.137 1.442 1.03 1.614v.309h-6.936v-.31c.653-.17 1.03-.617 1.03-1.613v-7.553zm14.832 6.043c0 1.167-1.03 1.682-1.682 1.682-1.373 0-2.06-.961-2.06-2.54V8.735c0-1.477.996-2.095 1.991-2.095.859 0 1.751.653 1.751 1.854v7.863zM2.197 3.31c0-1.133-.412-2.06-2.197-2.197V.667h15.107v4.91h-.515c-1.683-2.781-2.232-4.12-4.017-4.12h-2.85v8.412h1.167c1.923 0 2.507-.824 3.468-3.16h.412v7.04h-.412c-.961-2.335-1.545-3.16-3.468-3.16H7.725v6.936c0 .961.343 1.476 1.785 1.476h.79c2.781 0 3.57-1.854 5.356-4.875h.48l-.549 5.7H0v-.447c1.751-.137 2.197-1.064 2.197-2.197V3.31zm157.041 16.48v-.31c-1.133-.17-1.27-.754-1.27-1.613V.668h-6.352v.343c1.305.171 1.476.206 1.476.927v4.91c-.48-.55-1.579-1.03-2.987-1.03-2.952 0-5.974 2.3-5.974 7.38 0 4.705 2.06 6.902 5.013 6.902 2.232 0 3.502-1.373 3.948-2.335v1.992h6.146v.034zm33.818-3.433c0 1.167-1.03 1.682-1.682 1.682-1.373 0-2.06-.961-2.06-2.54V8.735c0-1.477.996-2.095 1.991-2.095.859 0 1.751.653 1.751 1.854v7.863zm6.146 3.433v-.31c-1.133-.17-1.27-.754-1.27-1.613V.668h-6.352v.343c1.305.171 1.476.206 1.476.927v4.91c-.48-.55-1.579-1.03-2.987-1.03-2.952 0-5.974 2.3-5.974 7.38 0 4.705 2.06 6.902 5.013 6.902 2.232 0 3.502-1.373 3.948-2.335v1.992h6.146v.034zm-32.788-2.026v-6.317c-.275 1.408-2.335 1.75-2.335 4.189v.103c0 1.201.824 2.094 1.854 2.094.172-.034.309-.069.481-.069zm12.291-7.76v7.383c0 1.304.378 1.854 1.511 2.094v.309h-7.485v-.31c.481-.102 1.099-.445 1.099-1.613v-9.82c0-.892-.309-1.51-1.168-1.647v-.31h6.18c-.137 1.271-.137 2.164-.137 3.915zm5.734-1.613c0 1.442-1.202 2.575-2.644 2.575-1.442 0-2.609-1.133-2.609-2.575 0-1.407 1.167-2.575 2.609-2.575s2.644 1.168 2.644 2.575zM80.649 14.47c-.206.206-.378.48-.378.859 0 .412.24.824 1.236.824l5.219.068c3.433.035 4.463 1.957 4.463 3.537 0 4.188-4.806 5.87-8.24 5.87-4.394 0-5.94-1.304-5.94-2.85 0-.926.928-1.887 2.85-1.887.275 0 .515.034.79.068l.034.069c-.446.378-.755.927-.755 1.51 0 1.134 1.064 2.267 3.914 2.267 2.815 0 4.566-1.133 4.566-2.438 0-1.064-.755-1.51-2.712-1.614l-3.948-.171c-2.884-.138-3.983-1.511-3.983-3.125 0-1.098.893-2.54 2.54-3.124-1.544-.755-2.609-2.026-2.609-3.914 0-2.815 2.713-4.6 6.146-4.6 1.064 0 2.094.17 2.987.514.378.069.721.069 1.064.069a9.424 9.424 0 0 0 3.777-.79v2.335h-.172c-.686-.069-2.575-.652-3.88-1.202 1.374.824 2.301 2.095 2.301 3.708 0 2.884-2.712 4.67-6.077 4.67-1.099-.035-2.232-.24-3.193-.653zm16-3.433c-1.511-1.099-2.782-2.61-2.782-4.635 0-3.502 3.09-6.008 7.588-6.008 1.957 0 3.777.446 5.013.892l-.138 4.498h-.549c-1.373-2.953-2.3-4.566-4.326-4.566-1.545 0-2.712 1.03-2.712 2.712 0 1.133.755 2.06 1.819 2.815l2.85 2.095c2.197 1.613 3.536 2.815 3.536 5.047 0 3.88-3.742 6.145-7.553 6.145-2.403 0-4.635-.686-5.734-1.304l-.206-5.116h.55c1.648 3.536 3.055 5.562 5.321 5.562 1.511 0 2.678-.927 2.678-2.712 0-1.374-1.03-2.335-2.403-3.296l-2.953-2.13zm-57.131 4.326c-.721 2.54-2.713 4.738-6.318 4.738-4.12 0-6.351-3.021-6.351-6.523 0-4.395 2.678-7.725 7.038-7.725 3.193 0 5.596 1.99 5.596 5.87v.55H32c0 3.536 1.716 4.91 3.605 4.91 1.27 0 2.609-.481 3.605-1.923l.309.103zm90.125 3.021a5.474 5.474 0 0 1-4.017 1.717c-1.683 0-2.575-.79-2.747-1.923-.687 1.065-1.82 1.889-3.502 1.889-2.129 0-3.639-1.442-3.639-3.468 0-2.438 1.648-3.296 4.291-4.017 2.129-.55 2.919-1.305 2.919-2.953v-.103c0-1.682-1.374-2.78-3.056-2.78-.412 0-.824.068-1.27.17 1.236.104 2.231 1.134 2.231 2.336 0 1.339-1.098 2.369-2.472 2.369-1.27 0-2.266-1.03-2.266-2.3 0-2.232 3.022-3.571 6.352-3.571 3.227 0 5.253 1.27 5.253 3.673 0 .035 0 3.159-.069 7.931 0 .55.275 1.03.859 1.03.24 0 .549-.068.892-.274l.241.274zm-6.798-.618v-6.317c-.275 1.408-2.335 1.75-2.335 4.189v.103c0 1.201.824 2.094 1.854 2.094.172-.034.309-.069.481-.069zm50.367.618a5.474 5.474 0 0 1-4.017 1.717c-1.683 0-2.575-.79-2.747-1.923-.687 1.065-1.82 1.889-3.502 1.889-2.129 0-3.639-1.442-3.639-3.468 0-2.438 1.648-3.296 4.291-4.017 2.129-.55 2.919-1.305 2.919-2.953v-.103c0-1.682-1.374-2.78-3.056-2.78-.412 0-.824.068-1.27.17 1.236.104 2.231 1.134 2.231 2.336 0 1.339-1.098 2.369-2.472 2.369-1.27 0-2.266-1.03-2.266-2.3 0-2.232 3.022-3.571 6.352-3.571 3.227 0 5.253 1.27 5.253 3.673 0 .035 0 3.159-.069 7.931 0 .55.275 1.03.859 1.03.24 0 .549-.068.892-.274l.241.274zM23.244 19.791h-3.949L15.587 8.324c-.412-1.202-.858-1.751-1.407-1.957v-.31h8.343v.31c-1.442.24-1.992.79-1.614 2.094l2.54 8.343 2.095-7.485c.172-.686.309-1.236.309-1.75 0-.893-.618-1.134-1.373-1.237v-.309h4.257v.31c-.755.274-1.27.652-2.026 2.849L23.244 19.79z" fill="#4C4294"/>
</svg>
