<?xml version="1.0" encoding="UTF-8"?><svg id="Layer_1" xmlns="http://www.w3.org/2000/svg" viewBox="0 0 104 104"><defs><style>.cls-1{fill:#fff;}.cls-2{fill:#412f59;}</style></defs><circle class="cls-1" cx="52.00026" cy="52.00005" r="42.88229"/><path class="cls-2" d="m52.00051,98.00051c-25.36503,0-46.00051-20.63548-46.00051-46.00051S26.63548,5.99949,52.00051,5.99949s45.99949,20.63548,45.99949,46.00051-20.63548,46.00051-45.99949,46.00051Zm0-85.76531c-21.92646,0-39.7648,17.83834-39.7648,39.7648s17.83834,39.7648,39.7648,39.7648,39.76379-17.83834,39.76379-39.7648S73.92595,12.2352,52.00051,12.2352Z"/><path class="cls-2" d="m56.19586,21.291c-14.50606-1.98197-28.14573,10.15947-30.4635,27.11648-2.31762,16.96198,7.56285,32.31952,22.07132,34.30149,14.50847,1.98212,28.14573-10.15932,30.46335-27.11889,2.32018-16.96183-7.56269-32.31696-22.07117-34.29908Zm-2.04841,3.14952c3.28766.16542,6.09158,1.43902,6.26694,2.84354.17762,1.40437-2.34489,2.40906-5.63014,2.24109-3.28525-.16783-6.09174-1.44143-6.26694-2.8458-.17521-1.40452,2.34489-2.40665,5.63014-2.23883Zm-3.66911,16.43154l-2.87804,2.83857c-3.07796-3.12978-8.12794-3.86782-11.981-1.75494l-1.94747-3.53955c5.36846-2.94704,12.49939-1.90544,16.80651,2.45592Zm19.91715,15.93544c-2.59663,10.93939-11.65514,18.32944-21.07898,17.18404-9.41887-1.14028-16.45353-10.47283-16.36465-21.71819l.00738-.44924,3.15946.3825.02471.32827c.69104,8.42186,6.38535,14.94536,13.85434,15.84882,7.46899.90587,14.55789-4.06774,17.24083-12.08705l.09868-.30853,3.16443.3825-.10621.43689Zm-.46024-10.39388c-3.08293-3.12737-8.12809-3.86782-11.98597-1.75494l-1.9425-3.53955c5.37343-2.94704,12.49924-1.90544,16.80395,2.46089l-2.87548,2.8336Z"/></svg>