<svg width="165" height="105" viewBox="0 0 165 105" fill="none" xmlns="http://www.w3.org/2000/svg">
    <g clip-path="url(#l89v88in8a)">
        <path d="M122.731 0c-6.234 0-12.208 2.852-16.176 7.676H9.167v9.147H0V105h155.833v-9.147H165V7.675h-26.094C134.939 2.852 128.966 0 122.731 0z" fill="#fff"/>
        <path d="m126.062 19.11.411-.514c-.783-.621-1.959-.65-2.772-.068l.385.534a1.671 1.671 0 0 1 1.976.049zM122.39 19.11l.411-.514c-.784-.621-1.96-.65-2.772-.068l.384.534a1.673 1.673 0 0 1 1.977.049zM126.341 20.782l.009-.072h-.521l-.01.052c-.278 1.35-1.328 2.292-2.557 2.292-1.227 0-2.278-.943-2.555-2.292l-.011-.052h-.52l.008.072c.206 1.821 1.529 3.192 3.078 3.192 1.55 0 2.873-1.371 3.079-3.192zM38.898 30.877c-.056 0-.108.006-.162.009-.053-.003-.105-.009-.16-.009-1.705 0-1.998 1.308-2.003 13.069v15.82c.009 11.528.31 12.827 2.003 12.827.055 0 .107-.007.16-.01.055.003.106.01.162.01 1.692 0 1.994-1.3 2.002-12.827v-15.82c-.004-11.761-.298-13.069-2.002-13.069z" fill="#3D2C86"/>
        <path d="M135.684 82.101c-9.961 0-12.043-5.963-12.043-21.684h9.236c0 11.023.452 12.83 2.534 12.83 1.811 0 2.264-1.085 2.264-7.228 0-3.885-.362-5.421-1.268-6.686-.814-1.084-2.444-2.259-4.164-3.524-1.54-1.084-3.894-2.71-5.434-4.788-1.629-2.079-3.168-6.053-3.168-12.559 0-2.046.12-3.883.357-5.528.175-1.212.962-2.251 2.067-2.784 2.199-1.062 3.951-3.083 4.744-5.577h.006l.029-.098c.016-.053.039-.101.053-.154.244-.705 1.176-2.76 3.734-2.897.345-.022.692-.038 1.053-.038 9.597 0 11.589 4.517 11.589 22.588h-8.964c0-12.379-.272-13.734-1.902-13.734-1.629 0-2.263 1.355-2.263 7.138 0 4.789.453 6.686 1.358 7.77.815.994 2.625 2.35 4.617 3.705 2.083 1.445 4.256 3.162 5.434 5.058 1.629 2.62 2.535 6.054 2.535 11.294 0 12.56-3.532 16.896-12.404 16.896zm-12.313-55.848c-.516.038-.904.024-1.152-.012l-.063-.004c-.017-.003-.031-.011-.048-.013-.155-.03-.26-.057-.26-.057l-.008-.021c-2.794-.68-4.67-3.415-4.21-6.28.479-2.978 3.307-5.064 6.299-4.64l.188.036c3.51.73 5.227 3.531 4.591 7.493-.521 3.239-3.107 5.627-5.993 5.717.047-.067.093-.143.14-.216.279-.403.827-1.287.827-2.034l-.311.031zm-3.937 3.482c-2.974 11.365-7.86 30.35-7.86 30.35v21.343h-9.834V60.427c-4.9-16.206-7.641-30.764-9.903-38.389h10.245c1.063 6.394 3.258 19.1 4.592 24.439 1.563-7.376 3.461-19.002 4.557-24.439h2.34c.954 0 1.761.62 2.114 1.505a8.859 8.859 0 0 0 2.834 3.732c.766.586 1.159 1.527.915 2.46zM95.761 81.469h-18.51v-59.45h10.502V71.71h8.008v9.758zm-21.477 0H55.772v-59.45h10.504V71.71h8.008v9.758zm-35.533.753c-9.891-.134-12.61-3.685-12.67-16.516l-.001-27.92c.06-12.85 2.778-16.405 12.642-16.539 9.894.134 12.612 3.688 12.67 16.534l.002 27.92c-.062 12.837-2.78 16.387-12.643 16.521zm98.197-70.6-.593-.797c-3.253-4.372-8.219-6.879-13.623-6.879-5.405 0-10.372 2.507-13.626 6.879l-.593.797h-95.39v80.285h147.922V11.622h-24.097z" fill="#3D2C86"/>
    </g>
    <defs>
        <clipPath id="l89v88in8a">
            <path fill="#fff" d="M0 0h165v105H0z"/>
        </clipPath>
    </defs>
</svg>
