<svg width="61" height="33" viewBox="0 0 61 33" fill="none" xmlns="http://www.w3.org/2000/svg">
    <path d="M32.978 16.475c0-.797-.005-1.58-.123-2.273H18.572v6.917h4.24c0 .691-1.96 2.113-4.9 2.113-3.234 0-6.896-2.56-6.97-6.68-.076-4.267 3.591-7.058 6.97-6.936 2.744.099 3.792.89 5.323 2.407l9.138.007c-.266-1.027-.923-2.58-2.048-4.187-.095-.133-.19-.268-.292-.402-2.25-3.015-6.158-6.075-12.232-6.082-7.136-.01-12.643 4.793-14.46 10.674l-.063.213a15.159 15.159 0 0 0-.577 4.15c.013 1.373.19 2.687.512 3.927a15.193 15.193 0 0 0 8.056 9.731l.095.045c.02.01.041.018.06.028 1.982.907 4.208 1.413 6.572 1.431a15.148 15.148 0 0 0 12.176-6.288c.056-.078 2.806-4.082 2.806-8.795z" fill="#4C4294"/>
    <path d="M55.544 25.204s2.783-3.579 2.794-8.344c.022-9.358-6.49-15.397-15.574-15.411-5.262-.008-10.114 2.81-12.599 6.19-2.21 3.008-2.574 5.514-2.574 7.337-.105 2.268.117 3.34.117 3.34.32 2.362 1.231 4.684 2.63 6.71 2.645 3.835 7.038 6.615 12.479 6.615 3.61 0 6.165-1.707 6.626-1.954l.957 1.115h9.25l-4.106-5.598zm-5.631-6.567-.79-.976H39.74l3.815 5.451c-3.97.783-7.722-2.613-7.667-6.502.056-3.975 3.242-6.926 7.051-6.9 4.183.026 8.355 4.59 6.974 8.927z" fill="#4C4294"/>
    <g opacity=".5" fill="#4C4294">
        <path d="M32.372 12.034c-.265-1.027-.923-2.582-2.048-4.188-.047-.068-.098-.136-.146-.205l-.013.016c-1.186 1.615-1.84 3.082-2.192 4.376l4.4.001zM32.978 16.475c0-.797-.005-1.58-.123-2.273h-5.238c-.018 0-.026.535-.026.787-.104 2.268.117 3.333.117 3.333.32 2.36 1.23 4.678 2.625 6.702.597-.943 2.645-4.482 2.645-8.55z"/>
    </g>
</svg>
