<svg width="104" height="104" viewBox="0 0 104 104" fill="none" xmlns="http://www.w3.org/2000/svg">
    <g clip-path="url(#4cfu7mvxva)">
        <path d="M52 100.476c26.772 0 48.475-21.704 48.475-48.476S78.772 3.524 52 3.524C25.228 3.524 3.525 25.228 3.525 52S25.228 100.476 52 100.476z" fill="#fff"/>
        <path d="M52 104C23.327 104 0 80.673 0 52 0 23.329 23.327 0 52 0s52 23.327 52 52c0 28.674-23.327 52-52 52zm0-96.951C27.214 7.049 7.049 27.214 7.049 52c0 24.786 20.165 44.95 44.951 44.95s44.951-20.165 44.951-44.95C96.951 27.215 76.786 7.049 52 7.049z" fill="#412F59"/>
        <path d="M52.08 17.322s-10.15 7.99-10.15 17.863c0 9.861 10.15 17.85 10.15 17.85s10.152-7.989 10.152-17.85c0-9.873-10.151-17.863-10.151-17.863zm4.855 21.011-3.654 3.654v3.501c0 .658-.543 1.201-1.2 1.201a1.209 1.209 0 0 1-1.201-1.2v-3.502l-3.654-3.654a1.198 1.198 0 0 1 1.694-1.694l1.96 1.96v-5.234l-3.654-3.654a1.198 1.198 0 0 1 1.694-1.694l1.96 1.96v-5.108c0-.657.543-1.2 1.2-1.2.658 0 1.202.543 1.202 1.2v5.108l1.959-1.96a1.198 1.198 0 1 1 1.694 1.694l-3.654 3.654v5.233l1.96-1.959a1.198 1.198 0 1 1 1.694 1.694z" fill="#412F59"/>
        <path d="M56.935 36.64a1.198 1.198 0 0 1 0 1.693l-3.654 3.654v3.501c0 .658-.543 1.201-1.2 1.201a1.209 1.209 0 0 1-1.201-1.2v-3.502l-3.654-3.654a1.198 1.198 0 0 1 1.694-1.694l1.96 1.96v-5.234l-3.654-3.654a1.198 1.198 0 0 1 1.694-1.694l1.96 1.96v-5.108c0-.657.543-1.2 1.2-1.2.658 0 1.202.543 1.202 1.2v5.108l1.959-1.96a1.198 1.198 0 1 1 1.694 1.694l-3.654 3.654v5.233l1.96-1.959a1.198 1.198 0 0 1 1.694 0zM58.046 73.351l15.866-21.23a3.15 3.15 0 1 0-5.05-3.77L59.89 60.387" fill="#fff"/>
        <path d="M58.045 75.148a1.795 1.795 0 0 1-1.438-2.872l15.867-21.23a1.364 1.364 0 0 0-.19-1.827 1.299 1.299 0 0 0-1.036-.331 1.33 1.33 0 0 0-.944.537L61.328 61.46a1.796 1.796 0 1 1-2.88-2.148l8.975-12.036a4.944 4.944 0 0 1 7.24-.751c1.915 1.691 2.218 4.62.69 6.67l-15.868 21.23a1.79 1.79 0 0 1-1.44.722z" fill="#412F59"/>
        <path d="m64.517 73.351 15.866-21.23a3.15 3.15 0 1 0-5.05-3.77L66.36 60.387" fill="#fff"/>
        <path d="M64.516 75.148a1.795 1.795 0 0 1-1.438-2.872l15.867-21.23a1.362 1.362 0 0 0-.189-1.826 1.303 1.303 0 0 0-1.036-.332c-.38.038-.717.23-.947.537L67.8 61.46a1.796 1.796 0 1 1-2.88-2.148l8.975-12.036a4.956 4.956 0 0 1 3.455-1.964 4.94 4.94 0 0 1 3.785 1.213c1.918 1.69 2.22 4.622.688 6.67l-15.866 21.23a1.791 1.791 0 0 1-1.44.722z" fill="#412F59"/>
        <path d="M52.803 68.49h13.782a3.993 3.993 0 0 0 0-7.984h-22.71a8.432 8.432 0 0 0-6.695 3.305L28.1 75.67l12.738 6.627 1.71-1.71a6.657 6.657 0 0 1 4.708-1.95h16.148c2.099 0 4.075-.99 5.332-2.672l15.866-21.23a3.15 3.15 0 1 0-5.05-3.77L70.577 63" fill="#fff"/>
        <path d="M40.837 84.093a1.8 1.8 0 0 1-.829-.202L27.27 77.264a1.8 1.8 0 0 1-.597-2.687l9.082-11.858a10.291 10.291 0 0 1 8.12-4.01h22.71a5.76 5.76 0 0 1 3.853 1.472l7.674-10.29a4.951 4.951 0 0 1 7.24-.753c1.916 1.694 2.218 4.624.69 6.671l-15.868 21.23a8.49 8.49 0 0 1-6.772 3.394H47.255c-1.28 0-2.53.52-3.436 1.424l-1.71 1.71a1.795 1.795 0 0 1-1.27.526zm-10.01-9.029 9.671 5.031.78-.779a8.513 8.513 0 0 1 5.976-2.476h16.149c1.525 0 2.98-.73 3.893-1.951l15.867-21.23a1.366 1.366 0 0 0-.19-1.827 1.341 1.341 0 0 0-1.036-.331c-.382.04-.716.23-.944.537l-8.677 11.636a5.795 5.795 0 0 1-5.73 6.612H52.801a1.797 1.797 0 0 1 0-3.593h13.783c1.21 0 2.196-.984 2.196-2.195 0-1.21-.985-2.196-2.196-2.196h-22.71c-2.05 0-4.02.972-5.268 2.602l-7.78 10.16z" fill="#412F59"/>
        <path d="M52.803 68.49h13.782a3.993 3.993 0 0 0 0-7.984h-22.71a8.432 8.432 0 0 0-6.695 3.305L28.1 75.67l12.738 6.627 1.71-1.71a6.657 6.657 0 0 1 4.708-1.95h16.148c2.099 0 4.075-.99 5.332-2.672l15.866-21.23a3.15 3.15 0 1 0-5.05-3.77L70.577 63" fill="#fff"/>
        <path d="M40.837 84.093a1.8 1.8 0 0 1-.829-.202L27.27 77.264a1.8 1.8 0 0 1-.597-2.687l9.082-11.858a10.291 10.291 0 0 1 8.12-4.01h22.71a5.76 5.76 0 0 1 3.853 1.472l7.674-10.29a4.951 4.951 0 0 1 7.24-.753c1.916 1.694 2.218 4.624.69 6.671l-15.868 21.23a8.49 8.49 0 0 1-6.772 3.394H47.255c-1.28 0-2.53.52-3.436 1.424l-1.71 1.71a1.795 1.795 0 0 1-1.27.526zm-10.01-9.029 9.671 5.031.78-.779a8.513 8.513 0 0 1 5.976-2.476h16.149c1.525 0 2.98-.73 3.893-1.951l15.867-21.23a1.366 1.366 0 0 0-.19-1.827 1.341 1.341 0 0 0-1.036-.331c-.382.04-.716.23-.944.537l-8.677 11.636a5.795 5.795 0 0 1-5.73 6.612H52.801a1.797 1.797 0 0 1 0-3.593h13.783c1.21 0 2.196-.984 2.196-2.195 0-1.21-.985-2.196-2.196-2.196h-22.71c-2.05 0-4.02.972-5.268 2.602l-7.78 10.16zM25.103 35.699s-1.503 8.748 3.04 13.785c4.538 5.032 13.395 4.437 13.395 4.437s1.502-8.748-3.035-13.78c-4.544-5.037-13.4-4.442-13.4-4.442zm12.146 8.486-.183 3.546 1.611 1.786a.83.83 0 0 1-.06 1.166.83.83 0 0 1-1.165-.06l-1.612-1.787-3.545-.183a.823.823 0 0 1 .085-1.644l1.901.098-2.408-2.67-3.546-.183a.823.823 0 0 1 .085-1.644l1.902.098-2.35-2.606a.83.83 0 0 1 .06-1.165.83.83 0 0 1 1.165.06l2.35 2.606.098-1.902a.823.823 0 0 1 1.644.085l-.183 3.545 2.409 2.67.098-1.9a.823.823 0 1 1 1.644.084z" fill="#412F59"/>
        <path d="M36.47 43.321c.453.023.802.41.779.864l-.183 3.546 1.611 1.786a.83.83 0 0 1-.06 1.166.83.83 0 0 1-1.165-.06l-1.612-1.787-3.545-.183a.823.823 0 0 1 .085-1.644l1.901.098-2.408-2.67-3.546-.183a.823.823 0 0 1 .085-1.644l1.902.098-2.35-2.606a.83.83 0 0 1 .06-1.165.83.83 0 0 1 1.165.06l2.35 2.606.098-1.902a.823.823 0 0 1 1.644.085l-.183 3.546 2.409 2.67.098-1.902a.823.823 0 0 1 .864-.779z" fill="#fff"/>
    </g>
    <defs>
        <clipPath id="4cfu7mvxva">
            <path fill="#fff" d="M0 0h104v104H0z"/>
        </clipPath>
    </defs>
</svg>
