<?xml version="1.0" encoding="UTF-8"?><svg id="Layer_1" xmlns="http://www.w3.org/2000/svg" viewBox="0 0 104 104"><defs><style>.cls-1{fill:#fff;}.cls-2{fill:#412f59;}</style></defs><circle class="cls-1" cx="52.00026" cy="52.00005" r="42.88229"/><path class="cls-2" d="m52.00051,98.00051c-25.36503,0-46.00051-20.63548-46.00051-46.00051S26.63548,5.99949,52.00051,5.99949s45.99949,20.63548,45.99949,46.00051-20.63548,46.00051-45.99949,46.00051Zm0-85.76531c-21.92646,0-39.7648,17.83834-39.7648,39.7648s17.83834,39.7648,39.7648,39.7648,39.76379-17.83834,39.76379-39.7648S73.92595,12.2352,52.00051,12.2352Z"/><path class="cls-2" d="m81.16095,46.22414c0-8.05929-6.53447-14.59376-14.59376-14.59376-7.88654,0-14.29478,6.2604-14.56718,14.07884-.27407-7.81844-6.68064-14.07884-14.56719-14.07884-8.06095,0-14.59376,6.53447-14.59376,14.59376,0,7.90316,6.28532,14.32135,14.12867,14.57051l.00665.02824c8.11743.05814,14.69508,6.2903,14.97746,14.07386.28071-7.77692,6.85006-14.00576,14.95752-14.0722v-.02492c7.89983-.18271,14.25159-6.63081,14.25159-14.57549"/></svg>