<?xml version="1.0" encoding="UTF-8"?><svg id="Layer_1" xmlns="http://www.w3.org/2000/svg" viewBox="0 0 104 104"><defs><style>.cls-1{fill:#fff;}.cls-2{fill:#484a9f;}</style></defs><g><circle class="cls-1" cx="52.00026" cy="52.00005" r="42.88229"/><path class="cls-2" d="m52.00051,98.00051c-25.36503,0-46.00051-20.63548-46.00051-46.00051S26.63548,5.99949,52.00051,5.99949s45.99949,20.63548,45.99949,46.00051-20.63548,46.00051-45.99949,46.00051Zm0-85.76531c-21.92646,0-39.7648,17.83834-39.7648,39.7648s17.83834,39.7648,39.7648,39.7648,39.76379-17.83834,39.76379-39.7648S73.92595,12.2352,52.00051,12.2352Z"/></g><path class="cls-2" d="m65.70971,40.24841l-1.73574,2.2923c-2.49251-1.88821-6.12197-1.89004-8.62182-.00551l-1.73208-2.2923c3.48252-2.62475,8.61079-2.62291,12.08963.00551m-2.62474,9.52551l.03857-.22776,2.26658-.0551-.0294.31776c-.70898,7.96792-6.33501,14.0954-13.087,14.25888-6.75382.16347-12.66455-5.68665-13.75009-13.6105l-.04409-.31592,2.26658-.05327.04959.22592c1.35003,5.86115,6.03014,9.86531,11.38249,9.73674,5.35236-.13041,9.83593-4.35683,10.90677-10.27675m-13.38274-9.13795l-1.73759,2.29229c-2.48882-1.8882-6.12197-1.89004-8.61998-.00551l-1.73392-2.29229c3.48069-2.62659,8.61264-2.62475,12.09148.00551m17.47875-11.66168c-5.21645-1.30778-10.46595-.46287-14.82093,1.96351-1.7082-1.04329-3.60193-1.84963-5.64809-2.36209-10.87003-2.72577-21.89618,3.87192-24.62746,14.73644-2.16923,8.62365,1.54472,17.33914,8.60345,21.93108-.53083,4.61397,2.42454,9.01856,7.05506,10.1794,3.60742.90369,7.24974-.40593,9.49612-3.06925.2498-.17082,1.8184-1.70085,4.94276-1.47309,3.12435.2296,4.77928,2.29597,4.8105,2.27025,1.18104,1.23064,2.71291,2.15821,4.49091,2.60271,5.04011,1.26554,10.15369-1.79453,11.42106-6.8328.26998-1.07268.34162-2.14719.24243-3.18864,4.21542-2.68903,7.45365-6.92464,8.76876-12.1521,2.73128-10.86452-3.86455-21.87965-14.73458-24.60542"/></svg>