<svg width="95" height="61" viewBox="0 0 95 61" fill="none" xmlns="http://www.w3.org/2000/svg">
    <g clip-path="url(#i7rroxg02a)">
        <path d="M70.663 0c-3.59 0-7.028 1.657-9.313 4.46H5.278v5.313H0V61h89.722v-5.314H95V4.459H79.976C77.692 1.657 74.253 0 70.663 0z" fill="#4C4294"/>
        <path d="m72.581 11.102.237-.299a1.346 1.346 0 0 0-1.596-.04l.221.311a.955.955 0 0 1 1.138.028zM70.467 11.102l.236-.299a1.346 1.346 0 0 0-1.596-.04l.222.311a.956.956 0 0 1 1.138.028zM72.742 12.074l.005-.042h-.3l-.006.03c-.16.784-.764 1.332-1.472 1.332-.707 0-1.312-.548-1.471-1.332l-.006-.03h-.3l.005.042c.119 1.058.88 1.854 1.772 1.854.893 0 1.654-.796 1.773-1.854zM22.396 17.938c-.032 0-.062.004-.093.005-.031-.002-.06-.005-.093-.005-.98 0-1.15.76-1.152 7.592v9.191c.004 6.697.178 7.452 1.152 7.452.032 0 .062-.004.093-.005.031.001.061.005.093.005.974 0 1.148-.755 1.152-7.452v-9.19c-.001-6.833-.17-7.593-1.152-7.593z" fill="#fff"/>
        <path d="M78.12 47.697c-5.734 0-6.933-3.464-6.933-12.597h5.318c0 6.403.26 7.453 1.46 7.453 1.042 0 1.303-.63 1.303-4.2 0-2.256-.21-3.148-.73-3.884-.47-.63-1.408-1.312-2.398-2.047-.887-.63-2.242-1.574-3.129-2.781-.938-1.208-1.824-3.517-1.824-7.296 0-1.189.07-2.256.206-3.212.1-.704.554-1.308 1.19-1.617 1.266-.617 2.275-1.791 2.732-3.24h.003l.017-.057c.009-.03.022-.06.03-.09.14-.409.677-1.602 2.15-1.683.198-.012.399-.022.606-.022 5.526 0 6.673 2.625 6.673 13.123h-5.162c0-7.192-.156-7.979-1.094-7.979-.939 0-1.303.787-1.303 4.147 0 2.782.26 3.884.781 4.514.47.577 1.512 1.365 2.659 2.152 1.199.84 2.45 1.837 3.128 2.939.938 1.522 1.46 3.517 1.46 6.561 0 7.296-2.034 9.816-7.142 9.816zm-7.088-32.445a3.19 3.19 0 0 1-.663-.007l-.037-.003c-.01-.002-.018-.006-.027-.007-.09-.017-.15-.033-.15-.033l-.005-.012a3.25 3.25 0 0 1-2.424-3.649c.276-1.73 1.904-2.942 3.627-2.696l.108.022c2.021.424 3.01 2.051 2.644 4.352-.3 1.882-1.79 3.27-3.45 3.322l.08-.126c.16-.234.476-.747.476-1.181l-.179.018zm-2.267 2.022c-1.712 6.603-4.525 17.633-4.525 17.633v12.399h-5.662v-12.2c-2.822-9.416-4.4-17.873-5.702-22.303h5.899c.612 3.714 1.876 11.096 2.643 14.198.9-4.285 1.993-11.04 2.624-14.198h1.348c.549 0 1.013.36 1.216.874.335.85.908 1.61 1.632 2.168.441.34.668.888.527 1.43zM55.135 47.33H44.477V12.792h6.048V41.66h4.61v5.668zm-12.365 0H32.11V12.792h6.048V41.66h4.61v5.668zm-20.459.438c-5.695-.078-7.26-2.14-7.294-9.595l-.001-16.22c.034-7.466 1.6-9.53 7.279-9.608 5.696.078 7.261 2.142 7.295 9.605v16.22c-.035 7.458-1.6 9.52-7.279 9.598zM78.85 6.752l-.341-.463c-1.873-2.54-4.733-3.997-7.844-3.997-3.112 0-5.972 1.457-7.846 3.997l-.34.463H7.554v46.641h85.168V6.752H78.85z" fill="#fff"/>
    </g>
    <defs>
        <clipPath id="i7rroxg02a">
            <path fill="#fff" d="M0 0h95v61H0z"/>
        </clipPath>
    </defs>
</svg>
