<?xml version="1.0" encoding="UTF-8"?><svg id="Layer_1" xmlns="http://www.w3.org/2000/svg" viewBox="0 0 104 104"><defs><style>.cls-1{fill:#fff;}.cls-2{fill:#484a9f;}</style></defs><g><circle class="cls-1" cx="52.00004" cy="52.00003" r="42.88184"/><path class="cls-2" d="m52,97.99948c-25.36493,0-46-20.63507-46-45.99897S26.63507,6.00052,52,6.00052s46,20.63507,46,46-20.63507,45.99897-46,45.99897Zm0-85.76354c-21.92644,0-39.76457,17.83813-39.76457,39.76457s17.83813,39.76354,39.76457,39.76354,39.76457-17.83813,39.76457-39.76354S73.92644,12.23595,52,12.23595Z"/></g><g><path class="cls-2" d="m52.07129,21.32386s-8.98006,7.06773-8.98006,15.80173c0,8.72281,8.98007,15.79053,8.98007,15.79053,0,0,8.97999-7.06773,8.97999-15.79054,0-8.734-8.98-15.80172-8.98-15.80172Zm4.29428,18.58631l-3.23193,3.23187v3.09774c0,.58154-.48086,1.06241-1.06234,1.06241-.58154,0-1.06241-.48086-1.06241-1.06241v-3.09774s-3.23193-3.23186-3.23193-3.23186c-.41377-.41377-.41377-1.0848,0-1.49857s1.08473-.41377,1.49857,0l1.73337,1.73337v-4.62975s-3.23193-3.23193-3.23193-3.23193c-.41377-.41377-.41377-1.0848,0-1.49857s1.08473-.41377,1.49857,0l1.73337,1.73337v-4.51795c0-.58154.48086-1.06241,1.06241-1.06241.58147,0,1.06234.48086,1.06234,1.06241v4.51795s1.73344-1.73337,1.73344-1.73337c.41377-.41377,1.08473-.41377,1.4985,0s.41377,1.0848,0,1.49857l-3.23193,3.23193v4.62975s1.73344-1.73337,1.73344-1.73337c.41377-.41377,1.08473-.41377,1.4985,0s.41377,1.0848,0,1.49857Z"/><path class="cls-1" d="m56.36556,38.4116c.41377.41377.41377,1.0848,0,1.49857l-3.23193,3.23187v3.09774c0,.58154-.48086,1.06241-1.06234,1.06241-.58154,0-1.06241-.48086-1.06241-1.06241v-3.09774s-3.23193-3.23186-3.23193-3.23186c-.41377-.41377-.41377-1.0848,0-1.49857s1.08473-.41377,1.49857,0l1.73337,1.73337v-4.62975s-3.23193-3.23193-3.23193-3.23193c-.41377-.41377-.41377-1.0848,0-1.49857s1.08473-.41377,1.49857,0l1.73337,1.73337v-4.51795c0-.58154.48086-1.06241,1.06241-1.06241.58147,0,1.06234.48086,1.06234,1.06241v4.51795s1.73344-1.73337,1.73344-1.73337c.41377-.41377,1.08473-.41377,1.4985,0s.41377,1.0848,0,1.49857l-3.23193,3.23193v4.62975s1.73344-1.73337,1.73344-1.73337c.41377-.41377,1.08473-.41377,1.4985,0Z"/></g><g><g><path class="cls-1" d="m57.34837,70.88754l14.03546-18.78092c.86877-1.1625.70011-2.79712-.38772-3.75773h0c-1.22193-1.07904-3.10503-.88367-4.07942.42323l-7.93838,10.6473"/><path class="cls-2" d="m57.34761,72.47727c-.33112,0-.66535-.10244-.9499-.31663-.70363-.52462-.84746-1.52109-.32181-2.22369l14.03541-18.78079c.36941-.49668.29697-1.20652-.16763-1.61629-.25351-.22454-.57946-.33733-.91679-.29284-.3363.03415-.63327.20281-.83505.47495l-7.93967,10.64762c-.52462.70467-1.52005.84953-2.22369.32388-.70363-.52462-.8485-1.52005-.32388-2.22369l7.93863-10.64762c.72847-.97784,1.84186-1.61111,3.05563-1.73735,1.21791-.12727,2.43478.26386,3.3495,1.07304,1.69389,1.49625,1.96189,4.08728.60947,5.90017l-14.03644,18.78079c-.31146.41804-.78952.63844-1.27378.63844Z"/></g><g><path class="cls-1" d="m63.0728,70.88754l14.03546-18.78092c.86877-1.1625.70011-2.79712-.38772-3.75773h0c-1.22193-1.07904-3.10503-.88367-4.07942.42323l-7.93838,10.6473"/><path class="cls-2" d="m63.07187,72.47727c-.33112,0-.66535-.10244-.9499-.31663-.70363-.52462-.84746-1.52109-.32181-2.22369l14.03541-18.78079c.37044-.49668.29697-1.20652-.1666-1.61525-.25558-.22558-.5836-.33836-.91679-.29387-.3363.03415-.6343.20385-.83712.47495l-7.93863,10.64762c-.52359.70467-1.51902.84953-2.22369.32388-.70363-.52462-.8485-1.52005-.32388-2.22369l7.93863-10.64762c.7295-.97888,1.84393-1.61215,3.05666-1.73735,1.21791-.12727,2.43478.26386,3.34846,1.07304,1.69596,1.49522,1.96396,4.08831.60844,5.90017l-14.03541,18.78079c-.31146.41804-.78952.63844-1.27378.63844Z"/></g><g><path class="cls-1" d="m52.71003,66.58786h12.1921c1.95056,0,3.53179-1.58124,3.53179-3.53179h0c0-1.95056-1.58124-3.5318-3.53179-3.5318h-20.08965c-2.32151,0-4.51067,1.08086-5.92218,2.92396l-8.03373,10.49021,11.26876,5.86255,1.51298-1.51298c1.10435-1.10435,2.60218-1.72477,4.16397-1.72477h14.28465c1.85708,0,3.60535-.87601,4.71705-2.36358l14.03546-18.78092c.86877-1.1625.70011-2.79712-.38772-3.75773h0c-1.22193-1.07904-3.10503-.88367-4.07942.42323l-7.93838,10.6473"/><path class="cls-2" d="m42.12534,80.39003c-.25041,0-.50186-.05898-.73364-.17901l-11.26847-5.86188c-.41597-.2173-.71605-.6074-.81746-1.0658-.10244-.4584.00414-.93852.28973-1.31103l8.03383-10.49034c1.70114-2.22058,4.38632-3.54714,7.18326-3.54714h20.08975c1.30793,0,2.50307.49254,3.40848,1.30276l6.78799-9.10377c.72743-.97784,1.84083-1.61008,3.05459-1.73632,1.2148-.12934,2.43374.26283,3.3495,1.07097,1.69596,1.49832,1.96293,4.09038.61051,5.9012l-14.03644,18.78079c-1.40416,1.88015-3.6444,3.00182-5.99019,3.00182h-14.28478c-1.13202,0-2.23921.45943-3.04011,1.2593l-1.51281,1.51281c-.30525.30525-.71191.46564-1.12374.46564Zm-8.85543-7.98727l8.55535,4.45048.68915-.68915c1.39174-1.39174,3.31949-2.19057,5.28759-2.19057h14.28478c1.34932,0,2.63655-.64465,3.4447-1.72597l14.03541-18.77975c.36941-.49565.29594-1.20652-.16763-1.61629-.25351-.22351-.57946-.32802-.91679-.29284s-.63327.20385-.83505.47495l-7.67581,10.29374c.03415.23799.05174.48116.05174.72847,0,2.82384-2.29715,5.121-5.121,5.121h-12.19251c-.87747,0-1.58938-.71191-1.58938-1.58938s.71191-1.58938,1.58938-1.58938h12.19251c1.07097,0,1.94223-.87126,1.94223-1.94223s-.87126-1.94223-1.94223-1.94223h-20.08975c-1.81392,0-3.55645.85988-4.66053,2.30129l-6.88215,8.98788Z"/></g><g><path class="cls-1" d="m52.71003,66.58786h12.1921c1.95056,0,3.53179-1.58124,3.53179-3.53179h0c0-1.95056-1.58124-3.5318-3.53179-3.5318h-20.08965c-2.32151,0-4.51067,1.08086-5.92218,2.92396l-8.03373,10.49021,11.26876,5.86255,1.51298-1.51298c1.10435-1.10435,2.60218-1.72477,4.16397-1.72477h14.28465c1.85708,0,3.60535-.87601,4.71705-2.36358l14.03546-18.78092c.86877-1.1625.70011-2.79712-.38772-3.75773h0c-1.22193-1.07904-3.10503-.88367-4.07942.42323l-7.93838,10.6473"/><path class="cls-2" d="m42.12534,80.39003c-.25041,0-.50186-.05898-.73364-.17901l-11.26847-5.86188c-.41597-.2173-.71605-.6074-.81746-1.0658-.10244-.4584.00414-.93852.28973-1.31103l8.03383-10.49034c1.70114-2.22058,4.38632-3.54714,7.18326-3.54714h20.08975c1.30793,0,2.50307.49254,3.40848,1.30276l6.78799-9.10377c.72743-.97784,1.84083-1.61008,3.05459-1.73632,1.2148-.12934,2.43374.26283,3.3495,1.07097,1.69596,1.49832,1.96293,4.09038.61051,5.9012l-14.03644,18.78079c-1.40416,1.88015-3.6444,3.00182-5.99019,3.00182h-14.28478c-1.13202,0-2.23921.45943-3.04011,1.2593l-1.51281,1.51281c-.30525.30525-.71191.46564-1.12374.46564Zm-8.85543-7.98727l8.55535,4.45048.68915-.68915c1.39174-1.39174,3.31949-2.19057,5.28759-2.19057h14.28478c1.34932,0,2.63655-.64465,3.4447-1.72597l14.03541-18.77975c.36941-.49565.29594-1.20652-.16763-1.61629-.25351-.22351-.57946-.32802-.91679-.29284s-.63327.20385-.83505.47495l-7.67581,10.29374c.03415.23799.05174.48116.05174.72847,0,2.82384-2.29715,5.121-5.121,5.121h-12.19251c-.87747,0-1.58938-.71191-1.58938-1.58938s.71191-1.58938,1.58938-1.58938h12.19251c1.07097,0,1.94223-.87126,1.94223-1.94223s-.87126-1.94223-1.94223-1.94223h-20.08975c-1.81392,0-3.55645.85988-4.66053,2.30129l-6.88215,8.98788Z"/></g></g><g><path class="cls-2" d="m28.2068,37.57983s-1.32956,7.73857,2.68958,12.19495c4.01399,4.45067,11.8483,3.92449,11.8483,3.92449,0,0,1.32953-7.73854-2.68446-12.18921-4.01914-4.45638-11.85341-3.93024-11.85341-3.93024Zm10.74399,7.50726l-.16183,3.13625,1.42549,1.58057c.26761.29672.24354.76336-.05315,1.03094-.29672.26761-.76336.24354-1.03097-.05319l-1.42549-1.58057-3.13626-.16176c-.40152-.02071-.71031-.36309-.6896-.76462s.36306-.71028.76462-.6896l1.68207.08678-2.13048-2.36226-3.13629-.1618c-.40152-.02071-.71031-.36309-.6896-.76462s.36306-.71028.76462-.6896l1.68207.08678-2.07903-2.30521c-.26761-.29672-.24354-.76336.05319-1.03097.29669-.26758.76332-.24351,1.03093.05322l2.07903,2.30521.08681-1.6821c.02071-.40152.36306-.71028.76458-.68957s.71031.36309.6896.76462l-.1618,3.13629,2.13048,2.36226.08681-1.6821c.02071-.40152.36306-.71028.76458-.68957s.71031.36309.6896.76462Z"/><path class="cls-1" d="m38.26119,44.32247c.40152.02071.71031.36309.6896.76462l-.16183,3.13625,1.42549,1.58057c.26761.29672.24354.76336-.05315,1.03094-.29672.26761-.76336.24354-1.03097-.05319l-1.42549-1.58057-3.13626-.16176c-.40152-.02071-.71031-.36309-.6896-.76462s.36306-.71028.76462-.6896l1.68207.08678-2.13048-2.36226-3.13629-.1618c-.40152-.02071-.71031-.36309-.6896-.76462s.36306-.71028.76462-.6896l1.68207.08678-2.07903-2.30521c-.26761-.29672-.24354-.76336.05319-1.03097.29669-.26758.76332-.24351,1.03093.05322l2.07903,2.30521.08681-1.6821c.02071-.40152.36306-.71028.76458-.68957s.71031.36309.6896.76462l-.1618,3.13629,2.13048,2.36226.08681-1.6821c.02071-.40152.36306-.71028.76458-.68957Z"/></g></svg>