<?xml version="1.0" encoding="UTF-8"?><svg id="Layer_1" xmlns="http://www.w3.org/2000/svg" viewBox="0 0 104 104"><defs><style>.cls-1{fill:#fff;}.cls-2{fill:#484a9f;}</style></defs><g><g><circle class="cls-1" cx="52.0001" cy="52.00037" r="43.00591"/><path class="cls-2" d="m52,98c-25.36442,0-46-20.63558-46-46S26.63558,6,52,6s46,20.63558,46,46-20.63558,46-46,46Zm0-86.01195c-22.06242,0-40.01195,17.94953-40.01195,40.01195s17.94953,40.01195,40.01195,40.01195,40.01195-17.94953,40.01195-40.01195S74.06242,11.98805,52,11.98805Z"/></g><g><path class="cls-2" d="m30.26798,71.11907l2.46773,2.28743c1.43854,1.33718,1.51066,2.4804.44053,3.6363-1.03309,1.11204-2.15196,1.13543-3.5749-.18323l-.96487-.89665-1.29624,1.39858-1.53795-1.42781,4.4657-4.81461Zm.19687,4.70058c.49705.46294.87521.48633,1.24166.09161.33917-.36548.33917-.74656-.18323-1.23289l-.91224-.84402-1.05843,1.14128.91224.84402Z"/><path class="cls-2" d="m35.18785,75.52727l4.53587,2.66753-.8908,1.51358-2.72698-1.60422-.49121.83525,2.00381,1.17831-.55163.93758-2.00186-1.17929-.5068.85961,2.7991,1.6471-.8908,1.51358-4.60799-2.71041,3.32929-5.65863Z"/><path class="cls-2" d="m40.32603,78.52324l3.30785,1.05064c2.09738.66761,2.49892,1.62371,2.13831,2.76304-.20077.62863-.62181,1.17441-1.46777,1.17734l-.00585.01852c.78944.48244.68808,1.19391.48146,1.84008l-.41909,1.32158-1.99602-.63448.44248-1.38786c.16763-.53312.05653-.81965-.44832-.98047l-1.33718-.42493-.68223,2.15001-2.00186-.63643,1.98822-6.25704Zm2.38586,4.03492c.60036.19103.90055-.00682,1.02725-.40544.1189-.37133-.01364-.7066-.70952-.92784l-1.23387-.3918-.41519,1.30209,1.33133.42298Z"/><path class="cls-2" d="m49.57125,80.87597l3.36633-.06238c1.96678-.03801,2.81275.73584,2.84198,2.31277.02924,1.51553-.7641,2.30887-2.70359,2.34396l-1.31963.02534.03509,1.9044-2.09933.03996-.12085-6.56405Zm3.40336,3.24937c.68223-.01267.97072-.2573.95902-.79626-.0078-.499-.27289-.77385-.98631-.7602l-1.24361.02339.02729,1.55549,1.24361-.02242Z"/><path class="cls-2" d="m60.98208,85.02492l-2.56714.60914-.16179,1.24849-2.06034.48828,1.1559-7.02017,2.5574-.60719,4.1928,5.75122-2.4112.57308-.70562-1.04284Zm-.70757-1.05161l-1.36057-2.01551-.02534.00585-.30798,2.4112,1.69389-.40154Z"/><path class="cls-2" d="m63.27633,82.25213c-.87326-1.74944-.47171-3.57685,1.6549-4.63723,2.25332-1.12178,3.64897-.05555,4.16357.97949.01949.03704.06432.12573.08187.18323l-1.59058.79334-.01949-.03606c-.2495-.499-.8908-.82648-1.72312-.41129-.86546.43078-1.0175,1.28747-.59062,2.14416.41129.82258,1.1364,1.26213,2.06814.79919.79529-.39667,1.01555-1.03017.72512-1.61007l-.02144-.04483,1.59058-.79334c.04093.05848.07602.12962.08382.14717.59257,1.18806.48146,2.84004-1.72117,3.93551-2.4112,1.2017-3.9433.0692-4.70156-1.44926Z"/><path class="cls-2" d="m68.45154,75.93076l1.56524-1.3976,1.94144,2.17145.0117-.0117.12475-4.01737,1.80109-1.61104-.16568,3.92089,4.70156.82842-2.08178,1.86249-2.92775-.5682-.10136,1.12178,1.07013,1.19683-1.56524,1.39858-4.37408-4.89453Z"/></g><g><path class="cls-2" d="m35.00852,27.58778c-.97559-1.99212-.55066-4.24154,2.21043-5.59041,2.75232-1.34692,4.79122-.30408,5.76779,1.68609,1.00093,2.04475.67249,4.25908-2.17047,5.65083-2.77084,1.35667-4.75224.40544-5.80775-1.74651Zm5.60113-2.72698c-.49023-1.00191-1.37616-1.50286-2.46188-.97072-1.0867.53214-1.24264,1.54184-.7524,2.5418.54384,1.10911,1.39663,1.54379,2.4921,1.0097,1.11399-.54579,1.24459-1.5165.72219-2.58079Z"/><path class="cls-2" d="m44.4818,19.31133l3.46866-.35086,3.01644,3.76397h.00975l-.42981-4.02712,2.19484-.22221.79919,7.84372-2.90728.29433-3.67723-4.59045-.02144.00195.54189,4.90622-2.19581.22416-.79919-7.84372Z"/><path class="cls-2" d="m56.57583,18.91758l2.48235.57502-1.25823,5.46371,3.39654.78554-.51167,2.21628-5.87792-1.35667,1.76893-7.68388Z"/><path class="cls-2" d="m64.13399,26.15509l-.78359-5.75999,2.84198,1.50676.33917,3.06615.02729.01559,2.72601-1.44438,2.34396,1.23971-5.21225,2.58274-1.47947,2.7952-2.28255-1.20853,1.47947-2.79325Z"/></g><g><path class="cls-2" d="m22.00907,62.80753c0-3.14996,2.611-5.33798,7.5182-5.33798,5.08945,0,6.94318,2.28061,6.96852,4.31366,0,.07797,0,.21734-.01267.32552h-3.302v-.0614c0-.74558-.9522-1.67537-3.41993-1.67537-2.58274,0-3.81075,1.02335-3.81075,2.43557,0,1.33425,1.03115,2.40536,3.83804,2.40536,2.38781,0,3.4443-.7602,3.4443-1.62956v-.07699h3.302c.01364.10818.01364.24755.01364.27874,0,2.25039-2.00966,4.32925-6.98216,4.32925-5.33798,0-7.55718-2.42095-7.55718-5.30679Z"/><path class="cls-2" d="m48.88122,66.12806h-6.14691l-1.01848,1.76991h-4.21425l6.34184-10.21107h4.60702l6.34281,10.21107h-4.9072l-1.00483-1.76991Zm-1.07013-1.9083l-1.95703-3.45989h-.02729l-1.99602,3.45989h3.98034Z"/><path class="cls-2" d="m55.94135,57.68689h3.84974v7.04551h7.07377v3.16556h-10.92351v-10.21107Z"/><path class="cls-2" d="m67.98665,64.46828h3.34099c0,.65202.57405,1.16369,3.39362,1.16369,2.89754,0,3.37997-.43468,3.37997-.93076,0-.29531-.22124-.51265-.88788-.60621-.73096-.10818-2.34883-.16958-3.68016-.23196-1.2787-.06238-3.26302-.21734-4.22789-.63643-.87521-.3723-1.4093-1.03992-1.4093-2.14123,0-1.89271,2.035-3.61583,6.95487-3.61583,5.74245,0,6.56502,1.9083,6.56502,3.55346h-3.26302c0-.63545-.76995-1.07013-3.24937-1.07013-2.2962,0-3.21039.3723-3.21039.88398,0,.26412.18323.46489.67833.55846.50875.10916,2.23187.18713,3.61583.26412,1.63151.07699,3.23573.17056,4.37213.54286,1.09547.3723,1.59155,1.1481,1.59155,2.1578,0,1.50481-.79626,3.75423-7.13907,3.75423-6.43345,0-6.82525-2.54473-6.82525-3.64604Z"/></g></g><g><path class="cls-2" d="m20.05882,48.29155h6.81842v-5.42082h-4.63821v-3.88434l2.82249-.13986c2.51451-.13937,3.26887-.89421,3.49303-4.02371h5.30874v13.46873h5.36527v4.91841h-19.16975v-4.91841Z"/><path class="cls-2" d="m48.81296,44.51929c4.55536-1.42489,5.28145-1.87224,5.28145-3.40921,0-1.08962-.86644-1.92828-2.59833-1.92828-2.15196,0-3.38192.92248-3.38192,2.73868,0,.36353.05653.78262.11208,1.09011h-5.7288c-.05555-.27972-.13937-.97803-.13937-1.62079,0-3.66066,2.71041-6.84669,9.58439-6.84669,6.87495,0,9.13801,3.12998,9.13801,6.2317,0,2.96186-1.95606,4.61092-7.34959,6.14789-2.82152.81039-2.82152,1.00581-2.82152,1.36885h10.84165v4.91841h-19.61613c0-4.86237.58672-6.79065,6.67808-8.69066Z"/><path class="cls-2" d="m63.93026,43.93257c0-5.61672,3.38095-9.38947,10.39527-9.38947,7.04161,0,10.45082,3.77274,10.45082,9.38947,0,5.33749-3.04568,9.55661-10.45082,9.55661-7.37688,0-10.39527-4.21912-10.39527-9.55661Zm13.8883.02778c0-2.99013-1.2017-4.49883-3.49303-4.49883-2.23577,0-3.43748,1.50871-3.43748,4.49883,0,3.0179,1.0906,4.61092,3.43748,4.61092,2.40341,0,3.49303-1.59301,3.49303-4.61092Z"/></g></svg>