<svg width="160" height="102" viewBox="0 0 160 102" fill="none" xmlns="http://www.w3.org/2000/svg">
    <g clip-path="url(#9y08blyw7a)">
        <path d="M119.012 0c-6.045 0-11.838 2.77-15.686 7.456H8.89v8.887H0V102h151.11v-8.886H160V7.456h-25.303C130.85 2.77 125.058 0 119.012 0z" fill="#fff"/>
        <path d="m122.242 18.565.398-.5c-.759-.604-1.899-.632-2.688-.066l.374.518a1.618 1.618 0 0 1 1.916.048zM118.681 18.565l.398-.5c-.759-.604-1.9-.632-2.688-.066l.373.518a1.62 1.62 0 0 1 1.917.048zM122.512 20.189l.009-.07h-.505l-.01.05c-.269 1.31-1.288 2.226-2.479 2.226-1.19 0-2.209-.916-2.478-2.226l-.011-.05h-.504l.008.07c.2 1.768 1.483 3.1 2.985 3.1 1.503 0 2.786-1.332 2.985-3.1zM37.72 29.995c-.055 0-.105.006-.158.008-.052-.002-.101-.008-.155-.008-1.653 0-1.938 1.27-1.942 12.695V58.06c.008 11.198.301 12.46 1.942 12.46.054 0 .103-.006.155-.009.053.003.103.008.157.008 1.641 0 1.933-1.261 1.941-12.46V42.69c-.003-11.425-.288-12.695-1.94-12.695z" fill="#3D2C86"/>
        <path d="M131.572 79.755c-9.658 0-11.678-5.792-11.678-21.064h8.956c0 10.708.438 12.463 2.458 12.463 1.756 0 2.195-1.053 2.195-7.021 0-3.774-.351-5.266-1.229-6.495-.79-1.053-2.371-2.194-4.039-3.423-1.492-1.053-3.776-2.633-5.268-4.652-1.58-2.019-3.073-5.88-3.073-12.2 0-1.987.117-3.772.347-5.37a3.588 3.588 0 0 1 2.003-2.704c2.133-1.032 3.832-2.995 4.602-5.418h.005l.028-.095c.016-.051.038-.099.052-.15.236-.684 1.14-2.68 3.621-2.814.333-.021.671-.037 1.02-.037 9.307 0 11.239 4.388 11.239 21.943h-8.693c0-12.026-.264-13.342-1.844-13.342s-2.195 1.316-2.195 6.934c0 4.652.439 6.495 1.316 7.548.791.966 2.547 2.283 4.478 3.599 2.02 1.404 4.127 3.072 5.269 4.914 1.58 2.546 2.459 5.88 2.459 10.971 0 12.2-3.425 16.413-12.029 16.413zm-11.939-54.251c-.501.037-.877.023-1.118-.012-.021-.002-.039-.002-.06-.005-.017-.003-.031-.01-.047-.013-.15-.028-.252-.054-.252-.054l-.009-.021c-2.709-.661-4.528-3.318-4.082-6.1.465-2.894 3.207-4.92 6.109-4.508l.182.035c3.404.71 5.069 3.43 4.452 7.279-.505 3.146-3.013 5.467-5.812 5.554.046-.066.091-.14.136-.21.271-.392.802-1.25.802-1.976l-.301.03zm-3.818 3.381c-2.884 11.041-7.622 29.484-7.622 29.484v20.733h-9.536V58.7c-4.752-15.744-7.41-29.885-9.603-37.292h9.935c1.031 6.21 3.159 18.553 4.452 23.74 1.516-7.165 3.356-18.46 4.42-23.74h2.269c.925 0 1.707.602 2.049 1.461a8.61 8.61 0 0 0 2.749 3.625c.743.57 1.123 1.484.887 2.39zM92.859 79.141H74.91V21.39h10.185v48.272h7.765v9.48zm-20.826 0h-17.95V21.39h10.184v48.272h7.766v9.48zm-34.456.732c-9.592-.13-12.227-3.58-12.286-16.044l-.002-27.123c.058-12.483 2.694-15.935 12.26-16.066 9.594.13 12.23 3.583 12.286 16.062l.002 27.122c-.06 12.47-2.696 15.92-12.26 16.05zm95.222-68.583-.576-.774c-3.154-4.247-7.97-6.683-13.211-6.683-5.241 0-10.057 2.436-13.212 6.683l-.575.774h-92.5V89.28h143.44V11.29h-23.366z" fill="#3D2C86"/>
    </g>
    <defs>
        <clipPath id="9y08blyw7a">
            <path fill="#fff" d="M0 0h160v102H0z"/>
        </clipPath>
    </defs>
</svg>
