<?xml version="1.0" encoding="UTF-8"?><svg id="Layer_1" xmlns="http://www.w3.org/2000/svg" viewBox="0 0 104 104"><defs><style>.cls-1{fill:#fff;}.cls-2{fill:#484a9f;}</style></defs><g><circle class="cls-1" cx="51.99967" cy="52.00005" r="42.88229"/><path class="cls-2" d="m51.99949,98.00051c-25.36402,0-45.99949-20.63548-45.99949-46.00051S26.63548,5.99949,51.99949,5.99949s46.00051,20.63548,46.00051,46.00051-20.63548,46.00051-46.00051,46.00051Zm0-85.76531c-21.92545,0-39.76379,17.83834-39.76379,39.7648s17.83834,39.7648,39.76379,39.7648,39.7648-17.83834,39.7648-39.7648S73.92595,12.2352,51.99949,12.2352Z"/></g><g><g><path class="cls-2" d="m52.20755,36.22906c-1.72131,0-3.11684-1.39552-3.11684-3.11684v-10.05995c0-1.72131,1.39552-3.11684,3.11684-3.11684s3.11684,1.39552,3.11684,3.11684v10.05995c0,1.72131-1.39552,3.11684-3.11684,3.11684Z"/><path class="cls-2" d="m64.46075,38.04477c-.57445,0-1.156-.15833-1.67564-.49122-1.45033-.92764-1.87457-2.85499-.94693-4.3043l3.76639-5.88962c.92663-1.45033,2.85499-1.87558,4.3043-.94693,1.45033.92764,1.87457,2.85499.94693,4.3043l-3.76639,5.88962c-.59475.93069-1.60054,1.43815-2.62866,1.43815Z"/><path class="cls-2" d="m39.95029,38.04477c-1.02812,0-2.03391-.50746-2.62866-1.43815l-3.76639-5.88962c-.92764-1.44931-.5034-3.37666.94693-4.3043,1.44931-.92967,3.37666-.50442,4.3043.94693l3.76639,5.88962c.92764,1.44931.5034,3.37666-.94693,4.3043-.51964.3329-1.10119.49122-1.67564.49122Z"/><circle class="cls-2" cx="28.29192" cy="40.76835" r="4.14806"/><circle class="cls-2" cx="75.70742" cy="41.44896" r="4.14806"/></g><path class="cls-2" d="m76.02234,69.3354c-1.15601-.20778-2.24702-.48058-3.35119-.79229,2.54574-4.68891,3.39019-9.91039,2.39004-14.82016.013-.013,0-.013,0-.02592-.15602-.8183-.37672-1.61067-.63643-2.40296-2.14333-6.45535-8.40366-9.93632-13.62515-10.4559-.22087-.026-.42873-.03892-.63643-.05193-.22102,0-.42873-.013-.63643-.013-1.96131-.05201-3.79292.31172-5.3775,1.06508-.84414.37664-1.62359.87022-2.31203,1.46773-.79213-.68844-1.68844-1.22094-2.68859-1.62359-1.84445-.76637-3.98746-1.02616-6.27349-.79237-.15586.013-.32472.039-.48058.07793-.16886.013-.33772.039-.49358.06501-2.97447.5325-6.16964,2.00023-8.67637,4.40311-.18202.16886-.35072.33772-.50674.51958-.026.013-.039.013-.026.026-1.44157,1.50666-2.59774,3.32511-3.28602,5.4812-1.81845,5.57221-1.10401,11.76777,1.9223,17.23605-1.10401.32472-2.26002.63643-3.35103.84422-1.37688.25979-2.31203,1.51974-2.03932,2.84453.27271,1.31187,1.59759,2.2081,2.97447,1.93538,1.64959-.3118,3.45488-.77937,5.27349-1.46773,4.45504,5.20841,10.71569,8.14387,17.37874,8.09194h.93515c6.65037,0,12.85901-2.98739,17.31405-8.2478,1.81829.62343,3.6239,1.10401,5.27349,1.41573,1.37672.25979,2.70159-.62343,2.97431-1.94831.27287-1.31187-.66244-2.57174-2.03916-2.83153Zm-15.71647-23.61347c3.45504.37664,7.85823,2.7406,9.28712,7.10479,1.42857,4.36427.76613,9.50775-1.7016,13.92394-6.00094-2.7796-11.0014-7.03986-13.14473-10.71569,1.10417-2.94846,1.10417-5.84492.05201-8.52059,1.59759-2.00031,4.35135-1.94831,5.5072-1.79245Zm-26.06827,7.20872c1.42873-4.36419,5.78007-6.78007,9.23495-7.20872.28571-.05193.61043-.05193,1.00016-.05193,1.36388,0,3.29918.32472,4.55905,1.84437-1.05216,2.67567-.98715,5.62413.10401,8.52059-2.14333,3.72775-7.09194,7.98801-13.07972,10.83254-2.53274-4.36419-3.24718-9.52067-1.81845-13.93686Zm18.26205,23.18482h-.93515c-1.29887,0-2.57174-.14286-3.8056-.44157-3.23418-.72736-6.22164-2.40288-8.67653-4.87077,5.00062-2.46789,9.78054-5.93585,12.85886-9.9364,3.14317,3.94862,7.97509,7.41658,12.97571,9.83246-2.27302,2.35095-5.03963,4.01355-8.03994,4.81884-1.41588.38965-2.88346.59743-4.37735.59743Z"/></g></svg>