<?xml version="1.0" encoding="utf-8"?>
<!-- Generator: Adobe Illustrator 27.2.0, SVG Export Plug-In . SVG Version: 6.00 Build 0)  -->
<svg version="1.1" id="Layer_1" xmlns="http://www.w3.org/2000/svg" xmlns:xlink="http://www.w3.org/1999/xlink" x="0px" y="0px"
	 viewBox="0 0 33 33" style="enable-background:new 0 0 33 33;" xml:space="preserve">
<style type="text/css">
	.st0{fill:#4C4294;}
</style>
<path class="st0" d="M16.3,6.6c-3.3,0-6,2.7-6,6s2.7,6,6,6s6-2.7,6-6S19.6,6.6,16.3,6.6z M16.3,16.6c-2.2,0-4-1.8-4-4s1.8-4,4-4
	s4,1.8,4,4S18.5,16.6,16.3,16.6z"/>
<path class="st0" d="M16.3,1.6c-7.7,0-14,6.3-14,14c0,3.8,1.5,7.3,4,9.8c0.6,0.6,1.2,1.2,2,1.7c2.2,1.6,5,2.5,8,2.5s5.7-1,8-2.5
	c0.7-0.5,1.4-1.1,2-1.7c2.5-2.5,4-6,4-9.8C30.3,7.9,24.1,1.6,16.3,1.6z M16.3,27.6c-3,0-5.7-1.1-7.8-2.9c0.6-1.8,2.2-3.1,4.2-3.1H20
	c2,0,3.6,1.3,4.2,3.1C22,26.5,19.3,27.6,16.3,27.6L16.3,27.6z M25.7,23.1c-1.1-2.1-3.2-3.5-5.7-3.5h-7.3c-2.5,0-4.7,1.5-5.7,3.5
	c-1.7-2-2.7-4.6-2.7-7.5c0-6.6,5.4-12,12-12s12,5.4,12,12C28.3,18.5,27.3,21.1,25.7,23.1L25.7,23.1z"/>
</svg>
