<svg width="163" height="20" viewBox="0 0 163 20" fill="none" xmlns="http://www.w3.org/2000/svg">
    <path d="M6.221 19.18c3.396 0 6.031-2.174 6.031-5.434 0-3.124-2.526-4.482-4.89-5.406l-1.521-.598C3.912 7.01 2.88 6.14 2.88 4.51c0-1.413 1.277-2.445 3.124-2.445 1.739 0 2.961.842 3.477 2.852H11.9C11.329 2.01 9.291 0 6.167 0 2.934 0 .517 1.929.517 4.781c0 2.69 2.118 4.238 4.237 5.026l1.522.598c2.01.788 3.613 1.657 3.613 3.667 0 2.065-1.576 3.097-3.613 3.097-2.092 0-3.532-1.195-3.831-3.559H0c.326 3.342 2.744 5.57 6.221 5.57zm15.16-.326v-8.72h10.54v8.72h2.255V.434H31.92V8.15H21.38V.435h-2.256v18.419h2.255zm30.86 0V16.87h-7.688v-6.738h7.444V8.15h-7.444V2.418h7.689V.435h-9.944v18.419h9.944zm17.197 0V16.87H61.75v-6.738h7.444V8.15H61.75V2.418h7.688V.435h-9.943v18.419h9.943zm9.508 0V10.73h2.038l6.493 8.123h2.852l-6.846-8.585c1.929-.652 3.695-2.092 3.695-4.7 0-2.635-1.712-5.162-6.412-5.162H76.72v18.42h2.227v.027zM80.712 8.72h-1.766V2.417h1.766c2.445 0 4.075.95 4.075 3.178 0 2.174-1.63 3.124-4.075 3.124zm24.831 10.133V16.87h-7.689V.434H95.6v18.419h9.943zm12.306.326c4.32 0 7.199-2.554 7.199-6.82V.436h-2.255V12.55c0 3.015-2.146 4.591-4.944 4.591s-4.944-1.575-4.944-4.591V.435h-2.255V12.36c0 4.265 2.907 6.819 7.199 6.819zm15.322-.326 5.732-7.716 5.678 7.716h2.771l-7.063-9.59 6.547-8.856h-2.581l-5.27 7.09-5.243-7.09h-2.771l6.628 8.992-7.036 9.426h2.608v.028zm29.829 0V16.87h-7.688v-6.738h7.443V8.15h-7.443V2.418H163V.435h-9.943v18.419H163z" fill="#4C4294"/>
</svg>
