<svg width="75" height="75" viewBox="0 0 75 75" fill="none" xmlns="http://www.w3.org/2000/svg">
    <circle cx="37.019" cy="37.019" r="35.391" fill="#fff"/>
    <path d="M55.395 38.94c-1.87 9.144-9.127 15.97-17.816 15.97-8.687 0-15.943-6.826-17.814-15.97h-2.668C18.456 50.994 27.106 60.29 37.579 60.29c10.476 0 19.123-9.296 20.482-21.348h-2.666z" fill="#412F59"/>
    <path d="M37.58 73.224c-19.824 0-35.953-16.13-35.953-35.954 0-19.823 16.13-35.952 35.954-35.952 19.823 0 35.952 16.129 35.952 35.952 0 19.824-16.13 35.953-35.952 35.953zm0-67.164c-17.21 0-31.21 14-31.21 31.21s14 31.211 31.21 31.211S68.79 54.48 68.79 37.27s-14-31.21-31.21-31.21z" fill="#412F59"/>
    <path d="M31.723 29.119a11.16 11.16 0 0 0-7.016-2.445c-2.377 0-4.647.728-6.568 2.108l-2.473-3.443a15.394 15.394 0 0 1 9.04-2.906c3.548 0 6.887 1.165 9.655 3.367l-2.638 3.319zm24.965-.002a11.15 11.15 0 0 0-7.013-2.444c-2.379 0-4.65.729-6.567 2.109l-2.476-3.443a15.393 15.393 0 0 1 9.043-2.906 15.55 15.55 0 0 1 9.654 3.369l-2.641 3.315z" fill="#412F59"/>
</svg>
