<svg width="96" height="50"  xmlns="http://www.w3.org/2000/svg" viewBox="0 0 96 50">
  <defs>
    <style>
      .cls-1 {
        fill: #4c4293;
      }
    </style>
  </defs>
  <path class="cls-1" d="m89.98,10.5c.79-.89,1.27-2.01,1.27-2.84,0-.56-.32-.91-.85-.91-.87,0-1.91,1.07-1.91,2.69,0,.23.03.45.07.68-1,1.56-2.04,3.14-3.09,4.66-.36-.07-.74-.11-1.13-.11-2.53,0-5.13,1.89-5.13,5.32,0,.93.16,1.75.44,2.46-2.16,2.46-4.07,4.06-5.35,4.06-.51,0-.81-.28-.81-.85,0-.62.3-1.59.89-2.95l7.43-16.45,8.02-.95.91-1.9-7.76.25,1.34-2.98-3.01.37-1.36,2.7-10.86.35-1.95,3.87,11.35-1.34-2.28,4.53c-1.16-.53-2.58-.82-4.23-.82-2.49,0-4.8.62-6.87,1.66-.94-.46-2-.68-3.09-.68-2.62,0-5.59,1.26-8,3.47-.49-1.51-1.51-2.41-3.03-2.41-1.76,0-3.64.93-5.43,2.43-1.07-.88-2.63-1.13-4.26-.51.88-1.64,1.36-3.39,1.36-5.13,0-3.04-1.42-5.27-4.02-6.61.89-.72,1.83-1.37,2.81-1.92-.36-.29-.59-.47-.9-.63-1.29.52-2.51,1.14-3.66,1.84-1.63-.52-3.59-.79-5.82-.79-10.36,0-20.17,5.98-20.17,13.38,0,3.26,1.84,4.43,3.67,4.43,1.7,0,3.37-.96,3.9-2.11-1.48-.31-2.36-1.59-2.36-3.22,0-5.76,6.97-10.79,14.13-10.79,1.6,0,2.99.3,4.13.85-4.35,3.35-7.68,7.9-10.44,12.77-.4-.06-.79-.09-1.16-.09-2.06,0-3.54.88-3.54,2.59,0,1.16.75,2.16,1.91,2.88-1.7,3.55-3.19,7.09-4.62,10.32-.5-.98-1.63-1.62-2.94-1.62-3.15,0-5.52,2.77-5.52,6.21,0,2.24.91,4.38,2.47,6.09-1.48,1.65-3.09,2.63-4.98,2.68-.62.01-1.22-.13-1.76-.44,1.48-.16,2.69-1.26,2.66-2.69-.03-1.43-1.22-2.44-2.86-2.4-2,.05-3.08,1.72-3.05,3.18.06,2.71,2.36,4.14,5.37,4.07,2.59-.06,4.83-.99,6.81-2.55,1.89,1.21,4.25,1.94,6.88,1.94,7.97,0,14.74-6.79,14.74-15.9,0-3.62-.93-6.49-2.33-8.68,2.59-.91,4.86-2.36,6.63-4.12,2.48-2.46,4.32-2.23,5.37-1.56-4.11,4.27-7.46,11.16-7.46,15.79,0,2.87,1.15,4.74,3.35,4.74,6.61,0,14.52-12.76,14.42-19.77,2.13-2.36,4.97-3.76,7.27-3.76.44,0,.84.05,1.19.15-5.17,3.66-8.39,9.91-8.39,14.72,0,2.55,1.25,4.48,3.69,4.48,4.55,0,10.48-7.09,10.48-14.16,0-2.17-.62-3.81-1.6-4.96,1.59-.95,3.34-1.52,5.21-1.52,1.09,0,2.23.26,3.25.7l-4.56,9.04c-1.06,2.21-1.47,3.84-1.47,5.03,0,1.83,1.07,2.76,2.77,2.76,2.47,0,5.39-2.3,8.3-5.58,1.26,1.55,3.22,2.25,4.84,2.25.52,0,1.04-.05,1.58-.15-1.22,1.54-3.26,2.71-6.25,3.46l-39.58,9.9c-6.01,1.5-9.69,4.47-7.92,10.15,1.37-1.13,3.85-2.23,10.23-4.18l35.93-10.96c5.25-1.6,8.59-5.37,10.01-9.17,2.45-1.19,4.63-3.46,4.63-6.61,0-3.48-2.92-5.56-3.98-8.09m-62.89,9.04c.44.37.87.8,1.25,1.28-.64.14-1.29.22-1.96.24.23-.51.47-1.02.71-1.52m-6.2-.83c0-.9,1.09-1.06,2.25-.92-.42.78-.82,1.56-1.22,2.35-.66-.41-1.03-.91-1.03-1.43m-8.84,22.04c-1.32-1.23-1.97-2.83-1.95-4.16,0-.66.18-1.27.47-1.8.43.92,1.45,1.63,2.69,1.63.48,0,.94-.1,1.36-.28-.84,1.72-1.69,3.28-2.57,4.6m5.46,1.99c-.92,0-1.75-.12-2.5-.34,4.1-4.61,7.16-12.01,10.5-19.43,1.4.05,2.75-.13,3.94-.34.67,1.41,1.08,3.13,1.08,5.18,0,6.7-4.93,14.93-13.02,14.93m13.1-22.64c-.84-.92-1.77-1.66-2.72-2.24,2.37-4.87,4.99-9.47,8.28-12.98,1.12,1.16,1.72,2.73,1.72,4.61,0,4.69-3.09,8.8-7.28,10.61m10.1,13.93c-.64,0-.96-.55-.96-1.49,0-4.08,6.92-17.41,10.4-17.41.66,0,.96.55.96,1.51,0,4.12-6.88,17.39-10.4,17.39m17.86-3.88c-.66,0-.96-.53-.96-1.51,0-3.16,2.81-9.77,7.31-13.66.5.83.72,1.87.73,2.97.02,5.22-4.76,12.21-7.08,12.21m22.35-9.22c-.08-.36-.12-.74-.12-1.15,0-2.04,1.45-3.68,3.37-3.68.13,0,.25,0,.37.02-1.22,1.73-2.44,3.37-3.61,4.81m7.26,2.31c-.84.61-1.84.98-2.97.98-1.5,0-2.78-.62-3.57-1.68,1.51-1.83,2.99-3.88,4.4-5.97,1.63.92,2.3,3.04,2.3,4.97,0,.59-.05,1.16-.17,1.7m1.93-2.33c-.06-2.33-1.22-4.57-3.21-5.62.79-1.2,1.54-2.4,2.25-3.57.75,1.52,1.86,3.16,1.86,5.32,0,1.37-.32,2.72-.9,3.87"/>
</svg>