<svg width="174" height="50" viewBox="0 0 174 50" fill="none" xmlns="http://www.w3.org/2000/svg">
<path fill-rule="evenodd" clip-rule="evenodd" d="M147.201 2.72833C135.828 2.72833 129.338 9.34205 129.338 17.3774C129.338 25.3509 135.828 32.0265 147.201 32.0265C158.574 32.0265 165.064 25.3509 165.064 17.3774C165.002 9.34205 158.512 2.72833 147.201 2.72833ZM147.201 27.7616C141.453 27.7616 137.744 23.0022 137.744 17.3774C137.744 11.6908 141.453 6.99325 147.201 6.99325C152.949 6.99325 156.658 11.6908 156.658 17.3774C156.596 23.0022 152.887 27.7616 147.201 27.7616ZM10.8471 3.28463H42.4323V10.2074C40.2071 8.29127 35.4477 7.54955 30.3792 7.54955V26.4017C30.3792 29.1832 30.6265 29.9867 31.6773 31.4084H21.6022C22.7147 29.9867 22.9002 29.1832 22.9002 26.4017V7.54955C17.8317 7.54955 13.0723 8.29127 10.8471 10.2074V3.28463ZM57.5758 27.1434C60.79 27.1434 66.2293 26.4017 68.3308 24.4856V31.4084H45.3374C46.4499 30.1104 46.6354 29.1832 46.6354 26.5253V8.22946C46.6354 5.5098 46.4499 4.64446 45.3374 3.34644H67.1564V10.2692C64.9931 8.35308 59.6156 7.54955 56.3396 7.54955H53.8054V15.0286H55.6597C57.514 15.0286 60.3573 14.9668 62.2116 14.2869V19.8498C60.3573 19.1699 57.514 19.1081 55.6597 19.1081H53.8054V27.2053L57.5758 27.1434ZM87.7393 14.1014C93.2404 14.8432 97.7526 16.8211 97.7526 22.7549C97.7526 29.8013 91.1389 32.0265 83.9689 31.9647C78.9622 31.9029 74.6973 31.4702 71.6068 30.1722V23.9293C76.0571 26.8344 80.6311 27.7616 83.9689 27.7616C87.4303 27.7616 90.6444 26.8962 90.6444 24.2384C90.6444 21.5805 87.6775 20.9624 81.6201 20.0353C76.3662 19.2317 71.6068 17.0065 71.6068 11.8145C71.545 4.82989 78.1587 2.72833 84.4634 2.72833C88.5428 2.72833 92.4987 3.22282 96.1455 4.39721V11.1964C93.1168 8.4767 88.6047 6.99325 84.1543 6.99325C81.1256 6.99325 78.2823 7.98222 78.2823 10.2074C78.2823 12.9889 82.4854 13.4215 87.7393 14.1014ZM118.954 2.72833C122.23 2.72833 125.073 3.0992 127.36 3.7173V10.7019C125.135 8.41489 122.477 6.99325 119.015 6.99325C112.649 6.99325 108.446 11.4436 108.446 17.3774C108.446 23.3112 112.711 27.7616 119.077 27.7616C122.539 27.7616 125.196 26.3399 127.422 24.0529V31.0375C125.135 31.6556 122.291 32.0883 119.015 32.0883C108.013 32.0883 100.04 26.5872 100.04 17.3774C99.9778 8.16765 107.951 2.72833 118.954 2.72833Z" fill="#4C4294"/>
<path d="M164.693 39.0729H145.656C142.565 39.0729 140.093 40.989 138.918 42.4106C138.918 42.4106 135.951 45.5012 133.974 46.6137L133.912 46.6756L133.85 46.7374L133.912 46.861H152.084C155.607 46.861 157.276 45.5012 159.501 43.3996C159.501 43.3996 162.468 40.3091 164.693 39.3201H164.755L164.817 39.2583V39.0729H164.693Z" fill="#4C4294"/>
<path d="M133.603 39.0729H114.565C111.475 39.0729 109.002 40.989 107.828 42.4106C107.828 42.4106 104.861 45.5012 102.883 46.6137L102.821 46.6756L102.759 46.7374L102.821 46.861H120.993C124.517 46.861 126.185 45.5012 128.411 43.3996C128.411 43.3996 131.378 40.3091 133.603 39.3201H133.665L133.726 39.2583V39.0729H133.603Z" fill="#4C4294"/>
<path d="M102.574 39.0729H83.5363C80.4458 39.0729 77.9734 40.989 76.799 42.4106C76.799 42.4106 73.8321 45.5012 71.8541 46.6137L71.7923 46.6756L71.7305 46.7374L71.7923 46.861H89.9028C93.426 46.861 95.0948 45.5012 97.32 43.3996C97.32 43.3996 100.287 40.3091 102.512 39.3201H102.574L102.636 39.2583V39.0729H102.574Z" fill="#4C4294"/>
<path d="M71.4833 39.0729H52.4457C49.3552 39.0729 46.8827 40.989 45.7083 42.4106C45.7083 42.4106 42.7414 45.5012 40.7635 46.6137L40.7017 46.6756L40.6399 46.7374L40.7017 46.861H58.874C62.3972 46.861 64.066 45.5012 66.2912 43.3996C66.2912 43.3996 69.2581 40.3091 71.4833 39.3201H71.5451L71.6069 39.2583V39.0729H71.4833Z" fill="#4C4294"/>
<path d="M40.4544 39.0729H21.355C18.2644 39.0729 15.792 40.989 14.6176 42.4106C14.6176 42.4106 11.6507 45.5012 9.67278 46.6137L9.61097 46.6756L9.54916 46.7374L9.61097 46.861H27.7832C31.3064 46.861 32.9753 45.5012 35.2005 43.3996C35.2005 43.3996 38.1674 40.3091 40.3926 39.3201H40.4544L40.5162 39.2583L40.4544 39.0729Z" fill="#4C4294"/>
</svg>
