<svg width="191" height="50" viewBox="0 0 191 50" fill="none" xmlns="http://www.w3.org/2000/svg">
    <g clip-path="url(#wa3ayhkxsa)">
        <path d="M45.944 19.102c-1.785 0-2.977-1.091-2.977-2.745 0-1.373.961-2.57 2.977-2.57 1.934 0 2.889 1.247 2.889 2.62 0 1.685-1.092 2.745-2.89 2.745M28.829 42.546c-3.85 0-7.139-2.171-7.139-6.302 0-4.992 5.541-6.084 7.962-6.408 3.982-.5 4.343-.774 4.343-1.828 0-2.234-.399-4.056-3.2-4.056-1.885 0-3.389.543-4.83 1.404l-.749.499c-.25.187-.686.686-1.186.686-.25 0-.748-.262-.748-.917v-2.047c0-.424.187-.823.686-1.11 1.872-.911 4.68-1.417 7.176-1.417 6.49 0 8.423 2.559 8.423 6.271v14.24c0 .311-.187.536-.561.536h-4.18c-.188 0-.438-.218-.438-.536l-.124-1.186c-1.435 1.273-3.183 2.184-5.304 2.184m5.179-10.97c-5.054 0-6.989 2.278-6.989 4.755 0 1.722.936 3.476 3.37 3.476 2.121 0 3.681-1.598 3.681-2.203v-6.028m66.704 11.045c-3.245 0-5.679-1.142-7.3-2.371-.687-.5-.812-1.373-.812-2.122V14.572c0-.324.25-.561.437-.561h4.43c.312 0 .562.237.562.561v9.098c.873-.749 2.87-2.334 5.99-2.334 4.742 0 7.737 4.119 7.737 9.61 0 7.05-4.867 11.73-10.92 11.73m-2.87-4.118c0 .437.112.874.624 1.186.437.312 1.123.499 2.496.499 2.914 0 4.979-2.995 4.979-8.112 0-1.872-.436-7.3-4.598-7.3-1.685 0-2.87.936-3.557 1.435v12.48-.125m56.158 11.044c-.561 0-1.123 0-1.897-.187-.593-.125-.917-.5-.917-.936v-2.627c0-.312.275-.624.599-.624.499 0 .874.125 1.398.25.873.187 1.684.312 2.433.312 2.559 0 4.43-1.31 4.493-3.87l-8.299-19.218c-.187-.499-.25-.624-.25-.748 0-.313.188-.437.437-.437h4.992c.374 0 .562.125.686.499l4.992 13.103 4.805-13.103c.062-.312.312-.5.624-.5h2.059c.187 0 .374.188.374.438 0 .187-.124.311-.187.561l-8.367 21.59c-1.167 2.995-4.462 5.46-7.987 5.46M8.298 42.714c-2.545 0-5.19-.562-7.537-1.685-.455-.312-.543-.499-.543-.936v-2.29c0-.418.144-.83.918-.83.411 0 .686.219 1.273.643C4.76 39.257 7 39.925 8.898 39.925c3.195 0 5.366-1.935 5.366-4.33C14.29 29.334 0 31.25 0 22.016c0-4.275 3.295-8.012 9.378-8.012 3.027 0 5.772.58 7.32 1.185.418.187.499.4.499.824v2.652c0 .405-.125.724-.624.724-.406 0-.73-.25-1.236-.624-1.828-1.31-3.575-2.122-5.865-2.122-2.558 0-4.568 1.373-4.568 3.494 0 5.242 14.495 4.68 14.495 13.104 0 6.364-5.303 9.36-11.106 9.36m39.872-.624h-4.43c-.25 0-.5-.25-.5-.562V22.073c0-.312.25-.562.437-.562h4.368a.56.56 0 0 1 .562.562v19.474c0 .33-.25.543-.562.543m75.252.437c-4.555 0-9.11-1.872-9.11-7.051V22.14c0-.312.187-.561.437-.561h4.43a.56.56 0 0 1 .562.561v14.414c0 2.147 1.372 3.476 3.681 3.476 2.808 0 3.744-1.585 3.744-4.555V22.079c0-.312.187-.562.437-.562h4.368c.312 0 .561.25.561.562v12.854c0 5.678-4.617 7.587-9.172 7.587m-52.477-.386h-4.43c-.25 0-.437-.237-.437-.562V27.844c0-1.56-.25-3.394-3.245-3.394-1.56 0-3.432.905-4.305 1.404v15.724c0 .312-.187.562-.562.562h-4.368c-.206 0-.436-.25-.436-.562V22.11c0-.337.25-.561.599-.561h4.367c.312 0 .575.224.575.561v1.042c1.247-.836 4.055-2.059 6.614-2.059 4.43 0 6.364 2.558 6.364 6.302v14.183c0 .312-.187.562-.561.562m10.857.499c-2.184 0-4.468-.53-6.24-1.33-.524-.267-.655-.667-.655-1.172V38.34c0-.643.312-.83.749-.83.312 0 .624.143.873.374 1.872 1.417 4.056 2.103 5.803 2.103 2.06 0 3.557-.873 3.557-2.558 0-3.931-11.481-2.434-11.481-9.71 0-4.454 3.806-6.47 8.111-6.47 1.935 0 3.932.4 5.803 1.167.562.23.687.686.687 1.185v1.517c0 .636-.25.823-.687.823-.187 0-.561-.187-.873-.374-1.622-1.123-3.806-1.747-5.678-1.747-1.872 0-3.37.686-3.37 2.184 0 3.619 11.731 1.934 11.731 9.172 0 5.491-3.993 7.363-8.174 7.363m59.59-.561h-4.368c-.218 0-.437-.25-.437-.562V22.073c0-.312.219-.562.437-.562h4.243c.343 0 .562.25.562.562l.093 2.433c.025 0 .032 0 .038-.062.873-1.31 2.932-3.37 5.46-3.37.605 0 1.123 0 1.996.188.624.124.936.499.936.936v2.87c0 .312-.287.624-.624.624-.499 0-.936-.187-1.528-.375a9.787 9.787 0 0 0-1.966-.187c-2.122 0-4.243.811-4.243 3.744v12.355c0 .312-.218.561-.53.561m31.511-20.716c-1.061.312 1.06-2.246.717-3.619-.374-1.31-1.891-3.12-.811-3.531 1.061-.419 3.057-.412 3.619.312 1.248 2.396-.437 6.333-3.538 6.8l.013.038zm9.715 21.534c-2.221 0-4.48-.537-6.24-1.335-.537-.25-.668-.656-.668-1.161v-1.785c0-.642.281-.83.73-.83.337 0 .624.188.874.375 1.853 1.435 4.031 2.121 5.803 2.121h.025c2.009 0 3.557-.873 3.557-2.558 0-3.931-11.544-2.434-11.544-9.672 0-4.43 3.806-6.427 8.112-6.427 1.934 0 3.968.375 5.803 1.186.561.25.686.686.686 1.186v1.56c0 .623-.268.81-.749.81-.205 0-.58-.187-.848-.374-1.623-1.123-3.831-1.747-5.666-1.747-1.872 0-3.369.686-3.369 2.184 0 3.62 11.668 1.997 11.668 9.235 0 5.49-3.993 7.425-8.187 7.425" fill="#4C4294"/>
    </g>
    <defs>
        <clipPath id="wa3ayhkxsa">
            <path fill="#fff" d="M0 0h191v49.114H0z"/>
        </clipPath>
    </defs>
</svg>
