<svg width="59" height="49" viewBox="0 0 59 49" fill="none" xmlns="http://www.w3.org/2000/svg">
    <path d="M29.325 38.924c.004-3.91.014-7.174.021-7.253l.045-.49c.078-.899.24-1.832.47-2.721.118-.455.187-.67.316-.982a6.04 6.04 0 0 1 2.908-3.142c.409-.207.685-.314 1.272-.492 1.24-.375 2.365-.58 3.77-.688a24.681 24.681 0 0 1 2.17 0c1.518.11 3.018.41 4.333.87.6.21 1.256.575 1.794 1 .22.174.744.698.925.926.33.412.657.96.866 1.447.255.595.525 1.656.685 2.693l.053.338c.224 1.454.207 2.834 0 4.462l-.062.388c-.16 1.006-.413 2.012-.654 2.59a6.132 6.132 0 0 1-2.09 2.634c-.696.495-1.346.779-2.537 1.104-1.29.353-2.536.536-3.976.585l-.398.014-1.011-2.78c-.557-1.53-1.01-2.783-1.009-2.785.002-.002.081.024.176.057.752.268 2.12.318 3.19.118a2.83 2.83 0 0 0 1.367-.655c.547-.488.813-.998 1.008-1.94.13-.627.163-.995.154-1.685a6.451 6.451 0 0 0-.205-1.665c-.185-.757-.422-1.203-.864-1.622a2.783 2.783 0 0 0-1.459-.74c-.486-.094-.78-.12-1.366-.12-.596 0-.933.03-1.389.121-.894.18-1.609.705-2 1.47-.277.54-.475 1.43-.525 2.352-.005.096-.01 3.218-.01 6.938l-.001 6.764h-5.975l.008-7.11zm-11.873 3.264a16.764 16.764 0 0 1-4.577-.815 5.643 5.643 0 0 1-.969-.396 6.087 6.087 0 0 1-3.054-3.607 18.542 18.542 0 0 1-.358-1.458 18.36 18.36 0 0 1-.293-2.262c-.02-.367-.02-1.61 0-1.971.084-1.514.454-3.345.87-4.31a6.113 6.113 0 0 1 3.1-3.151c.303-.137.559-.23 1.04-.375a16.723 16.723 0 0 1 10.112.13 6.224 6.224 0 0 1 2.622 1.688 6.358 6.358 0 0 1 1.242 2.055c.293.808.625 2.47.694 3.476.007.106.017.216.021.245.036.222.05 1.425.024 2.008-.068 1.539-.427 3.43-.84 4.424a6.933 6.933 0 0 1-.9 1.52 6.249 6.249 0 0 1-2.128 1.668c-.851.404-2.454.822-3.833 1-.888.116-1.959.166-2.773.131zm1.31-5.277c1.017-.098 1.58-.317 2.116-.82.43-.406.682-.867.863-1.587a7.56 7.56 0 0 0 .002-3.677c-.177-.703-.401-1.131-.803-1.533-.65-.65-1.473-.906-2.907-.903-1.147.003-1.833.159-2.42.55a2.938 2.938 0 0 0-.886.94c-.238.425-.42 1.067-.529 1.872-.047.344-.056 1.253-.017 1.63.078.755.26 1.495.473 1.917.28.56.703.981 1.265 1.263.404.202.775.286 1.614.365.205.02.964.01 1.23-.017zm-1.33-15.118a21.169 21.169 0 0 1-.551-.03 18.324 18.324 0 0 1-.999-.102l-.15-.02a4.35 4.35 0 0 1-.132-.02l-.248-.041c-.954-.154-2.3-.507-2.967-.78a6.613 6.613 0 0 1-1.539-.904 7.448 7.448 0 0 1-.951-.959 6.099 6.099 0 0 1-1.087-2.116 16.926 16.926 0 0 1-.607-3.561c-.02-.36-.02-1.607 0-1.957.054-.961.212-2.02.443-2.977.181-.752.307-1.116.571-1.654a6.063 6.063 0 0 1 3.507-3.069c1.241-.426 2.638-.71 4.088-.833a23.25 23.25 0 0 1 2.11-.022c1.475.08 2.926.35 4.322.8.744.241 1.437.609 2.016 1.07.242.193.764.712.949.945.436.549.812 1.24 1.033 1.9.185.554.414 1.586.527 2.372.101.708.15 1.285.176 2.054l.011.341h-5.971l-.012-.046a1.724 1.724 0 0 1-.012-.227 7.051 7.051 0 0 0-.4-2.126 2.857 2.857 0 0 0-.977-1.24c-.427-.305-.839-.45-1.58-.554-.326-.046-1.462-.052-1.795-.01a6.14 6.14 0 0 0-.907.177 2.824 2.824 0 0 0-1.724 1.588c-.147.35-.293.952-.369 1.518a9.457 9.457 0 0 0-.026 1.685c.078.742.265 1.504.467 1.906a2.859 2.859 0 0 0 1.996 1.508 7.779 7.779 0 0 0 2.836-.001 2.817 2.817 0 0 0 1.446-.763c.469-.462.708-.964.892-1.875.034-.168.063-.307.065-.309a779.44 779.44 0 0 1 5.606 2.62c.021.022-.122.59-.24.95a6.143 6.143 0 0 1-2.671 3.35 5.997 5.997 0 0 1-1.246.566c-.922.306-1.99.558-2.924.69a19.258 19.258 0 0 1-.917.104 19.5 19.5 0 0 1-.571.04c-.348.02-1.136.027-1.489.012zm21.508.013a6.345 6.345 0 0 0-.416-.02c-.225-.008-.44-.018-.48-.023a7.778 7.778 0 0 0-.25-.021 7.773 7.773 0 0 1-.422-.04 11.685 11.685 0 0 1-.632-.082c-.78-.106-1.988-.399-2.847-.692a5.878 5.878 0 0 1-2.34-1.438c-.817-.8-1.335-1.702-1.652-2.874-.266-.981-.422-1.888-.532-3.09-.052-.569-.052-2.05 0-2.49l.031-.335c.093-1.054.38-2.504.652-3.29a6.144 6.144 0 0 1 2.223-2.99c.657-.469 1.278-.747 2.365-1.057a16.736 16.736 0 0 1 7.717-.336c.996.194 2.061.495 2.66.754a6.136 6.136 0 0 1 3.26 3.377c.227.568.472 1.571.623 2.545l.053.337c.199 1.496.215 2.768 0 4.463l-.06.377c-.122.765-.326 1.65-.5 2.171a6.043 6.043 0 0 1-1.449 2.366 5.998 5.998 0 0 1-2.067 1.385c-.68.277-1.996.622-2.959.777l-.246.04a4.24 4.24 0 0 1-.141.02c-.06.007-.125.017-.145.02-.02.005-.099.014-.175.022a20.144 20.144 0 0 1-.801.08c-.344.028-1.45.061-1.47.044zm1.048-5.306c.4-.04.803-.115 1.025-.194a2.87 2.87 0 0 0 1.637-1.467c.16-.342.339-1.051.423-1.68.044-.334.051-1.333.012-1.673-.076-.65-.235-1.334-.402-1.721a3.02 3.02 0 0 0-.678-.96 3.032 3.032 0 0 0-1.035-.6 6.135 6.135 0 0 0-.907-.178c-.288-.037-1.449-.037-1.713 0-.788.107-1.151.224-1.58.508a2.748 2.748 0 0 0-.978 1.116c-.207.428-.386 1.165-.462 1.906-.032.307-.031 1.15.001 1.448.058.532.194 1.175.333 1.57a2.815 2.815 0 0 0 2.126 1.833c.67.135 1.433.167 2.198.092z" fill="#4C4294"/>
</svg>
