<svg width="191" height="50" viewBox="0 0 191 50" fill="none" xmlns="http://www.w3.org/2000/svg">
    <path d="M33.686 43.696 24.02 20.461l-9.665 23.235L0 8.848h5.824l8.626 22.477L24.02 7.84l9.54 23.485 8.656-22.477h5.825L33.686 43.696zM66.017 30.44c0 4.98-2.708 8.285-7.996 8.285-3.841 0-7.493-2.837-7.493-8.22 0-5.602 3.652-8.213 7.493-8.213 5.288 0 7.996 3.175 7.996 8.148zm5.195 12.435V18.132h-5.195v3.24c-1.669-2.361-4.691-3.715-7.996-3.715-7.084 0-12.845 5.383-12.845 12.846 0 7.649 6.202 12.782 12.845 12.782 3.305 0 6.17-1.45 7.996-3.78v3.37h5.195zm7.335-30.625c-1.669 0-2.99-1.298-2.99-2.966 0-1.668 1.321-3.022 2.99-3.022 1.669 0 2.959 1.354 2.959 3.022 0 1.668-1.29 2.966-2.959 2.966zm-2.614 5.883h5.196v24.742h-5.196V18.132zm18.386 4.505v20.237h-5.194V22.637h-4.817v-4.505h4.817V9.227l5.194-5.134v14.04h5.541v4.504h-5.54zm22.51.532c-.756-.443-1.638-.878-3.243-.878-3.022 0-5.351 1.886-5.351 6.012v14.571h-5.195V18.132h5.195v3.466c1.478-2.805 3.714-3.941 6.201-3.941 1.794 0 4.156.54 5.855 2.111l-3.462 3.401zm23.328 7.27c0 4.755-2.928 8.285-7.777 8.285-4.879 0-7.744-3.53-7.744-8.285 0-4.755 2.865-8.148 7.744-8.148 4.849 0 7.777 3.393 7.777 8.148zm5.32 0c0-7.399-5.824-12.782-13.097-12.782-7.303 0-13.064 5.383-13.064 12.782 0 7.398 5.761 12.91 13.064 12.91 7.273 0 13.097-5.512 13.097-12.91zm11.019 12.91c-2.582 0-5.1-.595-8.406-2.36v-5.287c2.424 1.668 5.761 3.207 8.248 3.207 2.015 0 3.683-.467 3.683-2.297 0-1.257-.44-2.079-3.022-3.53l-4.502-2.514c-2.833-1.636-4.312-3.434-4.312-6.045 0-3.997 2.991-6.866 8.373-6.866 2.488 0 5.133.636 7.556 1.926v5.126c-2.266-1.443-5.068-2.58-7.556-2.58-1.982 0-3.179.758-3.179 2.112 0 .814.094 1.29 2.204 2.547l4.313 2.49c3.463 1.983 5.352 3.651 5.352 6.827 0 4.666-3.653 7.245-8.752 7.245zm28.742-15.803h-11.931c.787-2.99 2.96-5.352 6.328-5.352 3.211 0 5.446 2.2 5.603 5.352zM191 31.793v-.379c0-9.22-4.628-13.757-11.365-13.757-6.611 0-11.995 5.005-11.995 12.468 0 8.752 6.045 13.225 12.782 13.225 3.558 0 7.083-1.072 9.193-3.272l-3.306-3.248c-1.511 1.169-3.337 1.894-5.887 1.894-4.533 0-6.895-3.304-7.398-6.931H191z" fill="#4C4294"/>
</svg>
