<svg width="98" height="27" viewBox="0 0 98 27" fill="none" xmlns="http://www.w3.org/2000/svg">
    <g clip-path="url(#59f0rlpyza)" fill="#4C4294">
        <path d="M28.752.745c-5.619.04-10.215 6.326-10.215 11.81 0 5.77 3.369 12.808 10.215 12.785 6.847-.023 10.4-7.6 10.4-12.785 0-5.728-4.78-11.85-10.4-11.81zm0 .215c4.704 0 5.972 5.228 5.972 11.595 0 8.4-1.53 12.544-5.972 12.537-4.441-.008-5.886-3.4-5.886-12.537C22.866 6.83 24.049.96 28.752.96zM41.008 12.71C40.982 6.47 45.943.944 50.143.67c1.517-.108 3.466.59 4.605 1.089.826.362 2.514-.162 2.813-1.122h.164v8.498h-.164c0-.362-1.563-8.251-7.418-8.251-4.325 0-4.743 7.654-4.743 11.825 0 4.172.126 12.43 5.173 12.43 2.445 0 4.254-1.076 4.724-3.254v-6.622h-2.053v-.283H61.2v.283h-1.962v9.682h-.16s-.319-1.397-1.937-1.393c-2.069.006-4.02 1.815-6.398 1.793-6.289-.058-9.71-6.397-9.734-12.635zM3.11 1.582H.632v-.28h8.676v.28H7.132l6.2 16.945c1.938-6.007 3.44-10.448 5.46-16.945H16.64v-.28h4.58v.28h-2.085L11.6 25.224 3.11 1.582zM62.413 19.436l-.039-17.882h-2.357v-.267h8.685v.267h-2.356l.052 19.606c.522 2.245 1.45 3.949 4.617 3.974 3.168.025 5.322-1.886 6.123-4.5V1.555H74.44v-.26h22.073l.046 8.584h-.212c-.41-5.542-2.534-7.637-6.25-8.248-1.278-.21-2.62-.054-4.315-.067v10.955c1.476.115 3.05.02 4.11-.896.963-.833 1.235-2.758 1.306-3.54h.187v9.538h-.202c-.058 0-.136-2.394-1.292-3.53-1.163-1.142-2.645-1.423-4.11-1.15v11.702c2.069 0 3.718.176 5.15-.22 4.351-1.2 5.883-4.896 5.872-8.603h.242v9.1H79.732v-.277h1.958V1.553h-4.23v19.08c-.48 1.826-2.231 4.847-6.722 4.826-4.175-.019-8.316-1.913-8.325-6.024z"/>
    </g>
    <defs>
        <clipPath id="59f0rlpyza">
            <path fill="#fff" d="M0 0h97.678v26.097H0z"/>
        </clipPath>
    </defs>
</svg>
