<svg width="744" height="317" viewBox="0 0 744 317" fill="none" xmlns="http://www.w3.org/2000/svg">
    <g clip-path="url(#hxrpjuxuva)" fill="#7E64A9">
        <path d="M744-25.014C480.232-475.343 216.462 758.485-47.306 308.154v-28.763C216.462 714.656 480.232-534.24 744-98.974v73.96z"/>
        <path d="M744 103.937C480.232-373.457 216.462 835.82-47.306 358.425v-28.806C216.462 791.926 480.232-432.442 744 29.865v74.072z"/>
        <path d="M744 233.602C480.232-270.3 216.462 912.854-47.306 408.952v-28.813C216.462 868.949 480.232-329.296 744 159.513v74.089z"/>
        <path d="M744 362.764c-263.768-529.432-527.538 625.43-791.306 95.998v-28.765C216.462 944.363 480.232-225.567 744 288.798v73.966z"/>
        <path d="M744 492.389C480.232-63.962 216.462 1065.69-47.306 509.337v-28.793C216.462 1021.81 480.232-122.921 744 418.346v74.043z"/>
        <path d="M744 622.105C480.232 38.535 216.462 1143.39-47.306 559.818v-28.835C216.462 1099.45 480.232-20.509 744 547.958v74.147z"/>
        <path d="M744 751.05C480.232 142.151 216.462 1218.66-47.306 609.758v-28.783C216.462 1174.8 480.232 83.212 744 677.036v74.014z"/>
        <path d="M744 881.006C480.232 244.544 216.462 1296.65-47.306 660.183v-28.838C216.462 1252.7 480.232 185.495 744 806.853v74.153z"/>
        <path d="M744 1010.09C480.232 348.891 216.462 1371.96-47.306 710.764V682C216.462 1328.13 480.232 289.994 744 936.126v73.964z"/>
    </g>
    <defs>
        <clipPath id="hxrpjuxuva">
            <path fill="#fff" d="M0 0h744v317H0z"/>
        </clipPath>
    </defs>
</svg>
